<svg id="Layer_1" data-name="Layer 1" xmlns="http://www.w3.org/2000/svg" xmlns:xlink="http://www.w3.org/1999/xlink" viewBox="0 0 1120.01 584.62"><defs><style>.cls-1{fill:none;}.cls-13,.cls-2{fill:#f04e98;}.cls-3,.cls-7{fill:#07c;}.cls-4{clip-path:url(#clip-path);}.cls-5{fill:#343741;}.cls-10,.cls-12,.cls-13,.cls-5,.cls-7,.cls-8{fill-rule:evenodd;}.cls-6{clip-path:url(#clip-path-2);}.cls-15,.cls-8{fill:#00bfb3;}.cls-9{clip-path:url(#clip-path-3);}.cls-10{fill:#3ebeb0;}.cls-11{clip-path:url(#clip-path-4);}.cls-12{fill:#fec514;}.cls-14{fill:#bcbcbc;}.cls-16{fill:#535966;}.cls-17{clip-path:url(#clip-path-5);}.cls-18{clip-path:url(#clip-path-6);}</style><clipPath id="clip-path"><rect class="cls-1" x="623.05" y="164.51" width="40.66" height="40.66"/></clipPath><clipPath id="clip-path-2"><rect class="cls-1" x="52.85" y="164.51" width="36.14" height="40.66"/></clipPath><clipPath id="clip-path-3"><rect class="cls-1" x="888.68" y="164.03" width="41.19" height="40.81"/></clipPath><clipPath id="clip-path-4"><rect class="cls-1" x="329.14" y="164.51" width="35.58" height="40.66"/></clipPath><clipPath id="clip-path-5"><rect class="cls-1" x="593.66" y="520.56" width="30.91" height="39.57"/></clipPath><clipPath id="clip-path-6"><rect class="cls-1" x="359.64" y="520.56" width="34.97" height="39.57"/></clipPath></defs><title>diagram-observability-desktop-1120px</title><path d="M110.26,175H113v12.88h6.69v2.31h-9.44Z"/><path d="M121.46,184.55c0-3.53,2.12-5.89,5.46-5.89s5.45,2.36,5.45,5.89-2.12,5.87-5.45,5.87S121.46,188.07,121.46,184.55Zm8.19,0c0-2.08-.9-3.75-2.72-3.75s-2.75,1.67-2.75,3.75.9,3.73,2.75,3.73S129.65,186.62,129.65,184.54Z"/><path d="M134.56,191.83l2.41-.59a2.72,2.72,0,0,0,2.66,1.39c1.52,0,2.64-.69,2.64-2.32v-2.16h-.14a3.36,3.36,0,0,1-3.27,1.88c-2.63,0-4.7-1.85-4.7-5.56s2.07-5.81,4.7-5.81a3.4,3.4,0,0,1,3.27,2h.15v-1.88h2.65v11.57c0,2.87-2.27,4.28-5.35,4.28C136.68,194.66,135,193.38,134.56,191.83Zm7.72-7.38c0-2.16-.95-3.59-2.68-3.59s-2.7,1.52-2.7,3.59.93,3.48,2.7,3.48S142.28,186.62,142.28,184.45Z"/><path d="M154.23,182.09a2,2,0,0,0-2.1-1.43c-1.12,0-2,.54-2,1.31s.45,1.06,1.61,1.32l1.94.41c2.15.47,3.19,1.46,3.2,3.09,0,2.16-2,3.63-4.86,3.63s-4.56-1.24-4.89-3.33l2.62-.25a2,2,0,0,0,2.26,1.56c1.28,0,2.12-.59,2.12-1.37s-.49-1.07-1.53-1.3l-1.95-.4c-2.18-.46-3.21-1.55-3.2-3.22,0-2.1,1.86-3.45,4.6-3.45s4.22,1.23,4.59,3.16Z"/><path d="M164.43,190.2V175h5.24c4.53,0,7.27,2.85,7.27,7.58s-2.74,7.61-7.37,7.61Zm5-2.38c3.16,0,4.77-1.74,4.77-5.23s-1.61-5.2-4.69-5.2h-2.34v10.43Z"/><path d="M178.88,187c0-2.56,2.12-3.22,4.33-3.46,2-.22,2.82-.25,2.82-1v-.05c0-1.12-.69-1.76-1.93-1.76a2.28,2.28,0,0,0-2.34,1.45l-2.5-.36c.59-2.07,2.43-3.14,4.82-3.14,2.18,0,4.63.9,4.63,3.91v7.63h-2.58v-1.57H186a3.52,3.52,0,0,1-3.34,1.8C180.52,190.43,178.88,189.24,178.88,187Zm7.15-.89v-1.34a8.36,8.36,0,0,1-2.46.56c-1.2.17-2.1.6-2.1,1.63s.8,1.5,1.92,1.5A2.43,2.43,0,0,0,186,186.11Z"/><path d="M197.09,180.89h-2.24v5.88c0,1.08.54,1.32,1.21,1.32a3.83,3.83,0,0,0,.79-.1l.45,2.1a5.64,5.64,0,0,1-1.58.26c-2,.06-3.57-1-3.56-3.13v-6.33h-1.62v-2.08h1.62v-2.73h2.69v2.73h2.24Z"/><path d="M198.8,187c0-2.56,2.11-3.22,4.32-3.46,2-.22,2.82-.25,2.82-1v-.05c0-1.12-.68-1.76-1.93-1.76a2.29,2.29,0,0,0-2.34,1.45l-2.5-.36c.59-2.07,2.43-3.14,4.83-3.14,2.17,0,4.62.9,4.62,3.91v7.63H206v-1.57H206a3.51,3.51,0,0,1-3.34,1.8C200.44,190.43,198.8,189.24,198.8,187Zm7.15-.89v-1.34a8.36,8.36,0,0,1-2.47.56c-1.2.17-2.09.6-2.09,1.63s.8,1.5,1.92,1.5A2.43,2.43,0,0,0,206,186.11Z"/><path d="M380.79,177.5l4.51,11h.18l4.51-11h3.36v15.18h-2.64V182.25h-.14l-4.19,10.39h-2l-4.19-10.41h-.14v10.45h-2.64V177.5Z"/><path d="M395.72,187.05c0-3.51,2.13-5.91,5.4-5.91,2.8,0,5.2,1.76,5.2,5.76v.82h-7.93a2.8,2.8,0,0,0,2.9,3.09,2.36,2.36,0,0,0,2.41-1.47l2.51.29c-.48,2-2.3,3.27-4.95,3.27C397.82,192.9,395.72,190.63,395.72,187.05Zm8-1.14a2.54,2.54,0,0,0-2.6-2.67,2.74,2.74,0,0,0-2.76,2.67Z"/><path d="M414.26,183.37H412v5.89c0,1.08.54,1.32,1.21,1.32a3.14,3.14,0,0,0,.79-.11l.45,2.1a5.48,5.48,0,0,1-1.58.27c-2,.06-3.57-1-3.56-3.14v-6.33h-1.61v-2.08h1.61v-2.73H412v2.73h2.24Z"/><path d="M416.5,181.29h2.61v1.9h.12a2.83,2.83,0,0,1,2.81-2.06,7.09,7.09,0,0,1,1,.07v2.47a5.38,5.38,0,0,0-1.25-.15,2.43,2.43,0,0,0-2.56,2.47v6.69H416.5Z"/><path d="M424.57,178.22a1.56,1.56,0,1,1,1.56,1.46A1.51,1.51,0,0,1,424.57,178.22Zm.21,3.07h2.68v11.39h-2.68Z"/><path d="M429.73,187c0-3.48,2.1-5.89,5.44-5.89,2.78,0,4.71,1.63,4.89,4.1H437.5a2.23,2.23,0,0,0-2.29-1.93c-1.66,0-2.76,1.38-2.76,3.68s1.08,3.73,2.76,3.73a2.22,2.22,0,0,0,2.29-1.93h2.56c-.19,2.42-2,4.11-4.88,4.11C431.78,192.9,429.73,190.48,429.73,187Z"/><path d="M448.82,184.57a2,2,0,0,0-2.1-1.42c-1.12,0-2,.53-2,1.3s.46,1.06,1.61,1.32l1.95.42c2.15.46,3.19,1.46,3.2,3.08,0,2.16-2,3.63-4.87,3.63s-4.55-1.23-4.88-3.33l2.62-.25a2,2,0,0,0,2.26,1.56c1.27,0,2.12-.59,2.12-1.36s-.49-1.07-1.54-1.3l-1.94-.41c-2.19-.45-3.21-1.55-3.2-3.21,0-2.11,1.86-3.46,4.6-3.46s4.21,1.23,4.58,3.16Z"/><path d="M459,192.68V177.5h5.25c4.52,0,7.27,2.84,7.27,7.57s-2.75,7.61-7.37,7.61Zm5-2.38c3.17,0,4.78-1.73,4.78-5.23s-1.61-5.19-4.69-5.19h-2.35V190.3Z"/><path d="M473.47,189.49c0-2.57,2.12-3.23,4.32-3.47,2-.21,2.82-.25,2.82-1v0c0-1.12-.68-1.76-1.93-1.76a2.28,2.28,0,0,0-2.33,1.44l-2.51-.35c.6-2.08,2.43-3.15,4.83-3.15,2.17,0,4.63.91,4.63,3.92v7.62h-2.58v-1.56h-.09a3.53,3.53,0,0,1-3.35,1.79C475.11,192.91,473.47,191.73,473.47,189.49Zm7.15-.89v-1.35a8.06,8.06,0,0,1-2.46.56c-1.2.17-2.1.6-2.1,1.63s.8,1.5,1.92,1.5A2.43,2.43,0,0,0,480.62,188.6Z"/><path d="M491.68,183.37h-2.25v5.89c0,1.08.54,1.32,1.22,1.32a3,3,0,0,0,.78-.11l.46,2.1a5.55,5.55,0,0,1-1.58.27c-2,.06-3.58-1-3.56-3.14v-6.33h-1.62v-2.08h1.62v-2.73h2.68v2.73h2.25Z"/><path d="M493.38,189.49c0-2.57,2.12-3.23,4.33-3.47,2-.21,2.81-.25,2.81-1v0c0-1.12-.68-1.76-1.92-1.76a2.28,2.28,0,0,0-2.34,1.44l-2.51-.35c.6-2.08,2.44-3.15,4.83-3.15,2.17,0,4.63.91,4.63,3.92v7.62h-2.58v-1.56h-.09a3.53,3.53,0,0,1-3.34,1.79C495,192.91,493.38,191.73,493.38,189.49Zm7.15-.89v-1.35a8.06,8.06,0,0,1-2.46.56c-1.2.17-2.1.6-2.1,1.63s.8,1.5,1.92,1.5A2.43,2.43,0,0,0,500.53,188.6Z"/><path d="M680.11,192.31l5.34-15.18h3.4l5.35,15.18h-2.93L690,188.57H684.3L683,192.31Zm9.15-5.95-2-6.12h-.12L685,186.36Z"/><path d="M696.19,177.13h5.7c3.49,0,5.35,2.13,5.35,5s-1.88,5-5.39,5h-2.91v5.13h-2.75Zm5.29,7.79c2,0,3-1.15,3-2.76s-.92-2.73-3-2.73h-2.52v5.49Z"/><path d="M713,177.13l4.51,11h.18l4.5-11h3.37v15.18H722.9V181.88h-.14l-4.2,10.39h-2l-4.2-10.41h-.14v10.45h-2.64V177.13Z"/><path d="M733.7,192.31V177.13H739c4.52,0,7.26,2.85,7.26,7.58s-2.74,7.6-7.37,7.6Zm5-2.38c3.17,0,4.77-1.73,4.77-5.22s-1.6-5.2-4.69-5.2h-2.34v10.42Z"/><path d="M748.16,189.12c0-2.57,2.11-3.23,4.32-3.46,2-.22,2.82-.26,2.82-1v0c0-1.12-.68-1.76-1.93-1.76a2.29,2.29,0,0,0-2.34,1.45l-2.5-.36c.59-2.08,2.43-3.14,4.83-3.14,2.17,0,4.62.9,4.62,3.91v7.62H755.4v-1.56h-.09a3.5,3.5,0,0,1-3.34,1.79C749.8,192.54,748.16,191.36,748.16,189.12Zm7.15-.89v-1.34a8.08,8.08,0,0,1-2.47.55c-1.2.17-2.09.6-2.09,1.63s.8,1.5,1.92,1.5A2.43,2.43,0,0,0,755.31,188.23Z"/><path d="M766.36,183h-2.24v5.89c0,1.08.54,1.32,1.21,1.32a3.14,3.14,0,0,0,.79-.11l.45,2.1a5.15,5.15,0,0,1-1.58.27c-2,.06-3.57-1-3.56-3.14V183h-1.61v-2.07h1.61V178.2h2.69v2.73h2.24Z"/><path d="M768.07,189.12c0-2.57,2.11-3.23,4.32-3.46,2-.22,2.82-.26,2.82-1v0c0-1.12-.68-1.76-1.93-1.76a2.26,2.26,0,0,0-2.33,1.45l-2.51-.36c.59-2.08,2.43-3.14,4.83-3.14,2.17,0,4.62.9,4.62,3.91v7.62h-2.58v-1.56h-.09a3.49,3.49,0,0,1-3.34,1.79C769.71,192.54,768.07,191.36,768.07,189.12Zm7.15-.89v-1.34a8.08,8.08,0,0,1-2.46.55c-1.21.17-2.1.6-2.1,1.63s.8,1.5,1.92,1.5A2.43,2.43,0,0,0,775.22,188.23Z"/><path d="M956.93,175v10c0,3.27-2.48,5.51-6.19,5.51s-6.18-2.24-6.18-5.51V175h2.76v9.73a3.42,3.42,0,0,0,6.84,0V175Z"/><path d="M959.8,178.85h2.65v1.89h.16a3.38,3.38,0,0,1,3.26-2c2.65,0,4.72,2.07,4.72,5.88s-2,5.9-4.71,5.9a3.44,3.44,0,0,1-3.27-2h-.12v6.09H959.8Zm5.33,9.42c1.78,0,2.72-1.56,2.72-3.7s-.93-3.66-2.72-3.66-2.69,1.44-2.69,3.66S963.41,188.27,965.13,188.27Z"/><path d="M978.59,180.93h-2.26v5.91c0,1.09.55,1.33,1.22,1.33a3.14,3.14,0,0,0,.79-.11l.46,2.11a5.57,5.57,0,0,1-1.59.27c-2,.06-3.59-1-3.57-3.15v-6.36H972v-2.08h1.62v-2.74h2.69v2.74h2.26Z"/><path d="M980.63,175.77a1.56,1.56,0,1,1,1.56,1.46A1.52,1.52,0,0,1,980.63,175.77Zm.21,3.08h2.69v11.43h-2.69Z"/><path d="M986.29,178.85h2.58v1.94H989a3.19,3.19,0,0,1,3.16-2.09,3.07,3.07,0,0,1,3.09,2.09h.12a3.49,3.49,0,0,1,3.43-2.09c2.1,0,3.57,1.36,3.57,3.91v7.67h-2.7V183a1.84,1.84,0,0,0-1.95-2.05,2,2,0,0,0-2.07,2.18v7.13H993v-7.37a1.83,1.83,0,0,0-1.92-1.94,2.18,2.18,0,0,0-2.1,2.36v6.95h-2.7Z"/><path d="M1004.6,184.63c0-3.53,2.14-5.93,5.41-5.93,2.82,0,5.23,1.76,5.23,5.78v.82h-8a2.82,2.82,0,0,0,2.92,3.11,2.39,2.39,0,0,0,2.42-1.48l2.51.29c-.47,2-2.3,3.28-5,3.28C1006.71,190.5,1004.6,188.22,1004.6,184.63Zm8-1.14a2.54,2.54,0,0,0-2.6-2.69,2.75,2.75,0,0,0-2.77,2.69Z"/><path d="M1022.82,190.28V175h5.27c4.54,0,7.29,2.86,7.29,7.6s-2.75,7.64-7.4,7.64Zm5-2.39c3.18,0,4.79-1.74,4.79-5.25s-1.61-5.21-4.71-5.21h-2.35v10.46Z"/><path d="M1037.33,187.07c0-2.57,2.13-3.23,4.34-3.47,2-.22,2.83-.26,2.83-1v0c0-1.13-.68-1.77-1.93-1.77a2.29,2.29,0,0,0-2.35,1.45l-2.51-.35c.59-2.09,2.44-3.16,4.84-3.16,2.18,0,4.65.91,4.65,3.93v7.65h-2.59v-1.57h-.09a3.55,3.55,0,0,1-3.36,1.8C1039,190.51,1037.33,189.32,1037.33,187.07Zm7.18-.89v-1.35a7.77,7.77,0,0,1-2.47.56c-1.21.17-2.11.6-2.11,1.64s.81,1.5,1.93,1.5A2.44,2.44,0,0,0,1044.51,186.18Z"/><path d="M1055.61,180.93h-2.26v5.91c0,1.09.55,1.33,1.23,1.33a3,3,0,0,0,.78-.11l.46,2.11a5.57,5.57,0,0,1-1.59.27c-2,.06-3.58-1-3.57-3.15v-6.36H1049v-2.08h1.62v-2.74h2.69v2.74h2.26Z"/><path d="M1057.32,187.07c0-2.57,2.12-3.23,4.34-3.47,2-.22,2.83-.26,2.83-1v0c0-1.13-.69-1.77-1.94-1.77a2.29,2.29,0,0,0-2.34,1.45l-2.52-.35c.6-2.09,2.44-3.16,4.85-3.16,2.18,0,4.64.91,4.64,3.93v7.65h-2.59v-1.57h-.09a3.52,3.52,0,0,1-3.35,1.8C1059,190.51,1057.32,189.32,1057.32,187.07Zm7.18-.89v-1.35a7.84,7.84,0,0,1-2.48.56c-1.2.17-2.1.6-2.1,1.64s.8,1.5,1.93,1.5A2.44,2.44,0,0,0,1064.5,186.18Z"/><g id="APM"><rect class="cls-2" x="623.05" y="164.51" width="40.66" height="12.8"/><rect class="cls-3" x="647.14" y="193.87" width="16.56" height="11.29"/><g class="cls-4"><path class="cls-5" d="M635.85,177.31h27.86a12.8,12.8,0,0,1-12.8,12.8H635.85Z"/></g></g><g id="Logging"><g class="cls-6"><path class="cls-5" d="M68.66,182.23v22.94h12a27.82,27.82,0,0,0-12-22.94"/><path class="cls-7" d="M52.85,177.31v15.81a12.05,12.05,0,0,1,12.05,12h3.76V182.23a27.74,27.74,0,0,0-15.81-4.92"/><path class="cls-8" d="M68.66,164.51V177.8a31.63,31.63,0,0,1,15.81,27.37H89V184.84a20.33,20.33,0,0,0-20.33-20.33"/></g></g><g id="Uptime"><g class="cls-9"><path class="cls-10" d="M921.5,172.66l-8.36,7.73V183a19.29,19.29,0,0,1-1.74,8,16.11,16.11,0,0,0,16.36,2.31l0,0a20.6,20.6,0,0,0,2.07-9v-3.86Z"/><path class="cls-5" d="M911.69,204.69c.47-.06.94-.13,1.41-.22l.46-.08c.57-.12,1.14-.27,1.69-.44l.54-.18c.38-.13.76-.26,1.13-.41l.66-.28c.35-.15.69-.32,1-.49s.73-.39,1.08-.59l.76-.46.83-.57.48-.36a20.86,20.86,0,0,0,2.76-2.55l.14-.15a20.86,20.86,0,0,0,3.11-4.63h0A16.11,16.11,0,0,1,911.4,191a19.34,19.34,0,0,1-13,10.73h0a20.53,20.53,0,0,0,3.54,1.77l.55.2,1,.32q.75.22,1.5.39l.62.11c.42.08.84.14,1.27.19l.58.07c.61.05,1.23.09,1.86.09s1.25,0,1.87-.09l.54-.06"/><path class="cls-7" d="M897.49,198a15.45,15.45,0,0,0,11-10.09,15.93,15.93,0,0,1-3.09-9.45V164a20.58,20.58,0,0,0-10.81,34.67Z"/></g></g><g id="Metrics"><g class="cls-11"><path class="cls-5" d="M347.52,181.71,343,186.2a12.71,12.71,0,0,0,18,0l-4.5-4.49a6.33,6.33,0,0,0-9,0"/><path class="cls-12" d="M344.86,179a10.13,10.13,0,0,1,14.31,0l4.08,4.09a12.7,12.7,0,1,0-22.48,0Z"/><path class="cls-13" d="M352,189.92a12.65,12.65,0,0,1-9-3.72l-13.89,13.88v5.09h35.58V189.92L361,186.2a12.67,12.67,0,0,1-9,3.72"/></g></g><path d="M435.31,24V.54h8.11c7,0,11.23,4.4,11.23,11.71S450.41,24,443.26,24Zm7.74-3.68c4.89,0,7.38-2.68,7.38-8.08s-2.49-8-7.25-8h-3.62V20.33Z"/><path d="M457.73,15.31c0-5.43,3.29-9.13,8.33-9.13,4.33,0,8,2.72,8,8.89v1.27H461.85c0,3,1.81,4.78,4.49,4.78a3.67,3.67,0,0,0,3.72-2.27l3.87.44c-.73,3.05-3.55,5.06-7.65,5.06C461,24.35,457.73,20.83,457.73,15.31Zm12.4-1.76a3.92,3.92,0,0,0-4-4.14,4.22,4.22,0,0,0-4.26,4.14Z"/><path d="M486.54,24H482l-6.27-17.6h4.42l4.05,13.07h.18L488.4,6.41h4.41Z"/><path d="M503,17.77c0-2.76,1.79-4.44,4.4-6.24-1.35-1.67-2.41-3.38-2.41-5.48,0-3.33,2.44-5.79,6.16-5.79s5.95,2.46,5.95,5.32c0,2.23-1.15,3.93-3.11,5.35L512.46,12l4.28,5a8.62,8.62,0,0,0,1-4.09h3.56a11.44,11.44,0,0,1-2,7l3.44,4H518.2l-1.5-1.72a9.36,9.36,0,0,1-6,2.06C505.88,24.35,503,21.51,503,17.77Zm6.62-3.64-.38.28c-1.55,1.14-2.17,2.37-2.17,3.18,0,1.86,1.49,3.35,3.79,3.35a6.26,6.26,0,0,0,3.63-1.24Zm2.1-5.54a3.29,3.29,0,0,0,1.86-2.82,2.25,2.25,0,0,0-2.38-2.11,2.46,2.46,0,0,0-2.51,2.45,5.86,5.86,0,0,0,1.7,3.38Z"/><path d="M543.42,24.33c-6.17,0-10.78-4.48-10.78-12S537.25.22,543.42.22,554.2,4.69,554.2,12.28,549.57,24.33,543.42,24.33Zm0-20.29c-3.82,0-6.51,2.9-6.51,8.24s2.69,8.23,6.51,8.23,6.5-2.9,6.5-8.23S547.24,4,543.42,4Z"/><path d="M558,6.41h4.08V9.32h.24a5.22,5.22,0,0,1,5-3.14c4.07,0,7.26,3.19,7.26,9.05s-3.1,9.08-7.25,9.08a5.29,5.29,0,0,1-5-3.08h-.17V30.6H558Zm8.2,14.5c2.74,0,4.18-2.4,4.18-5.7S569,9.58,566.24,9.58s-4.13,2.21-4.13,5.63S563.6,20.91,566.24,20.91Z"/><path d="M588.31,11.47a3.08,3.08,0,0,0-3.24-2.2c-1.73,0-3.05.83-3,2,0,1,.69,1.64,2.48,2l3,.64c3.33.72,4.94,2.26,5,4.77,0,3.33-3.11,5.61-7.51,5.61s-7-1.91-7.55-5.14l4-.39c.36,1.58,1.59,2.4,3.5,2.4s3.27-.9,3.27-2.11c0-1-.75-1.65-2.37-2l-3-.63c-3.38-.7-5-2.4-5-5,0-3.25,2.88-5.34,7.11-5.34s6.51,1.9,7.08,4.88Z"/><path d="M603.05.54h18.72V4.11h-7.25V24H610.3V4.11h-7.25Z"/><path d="M621.86,15.31c0-5.43,3.29-9.13,8.33-9.13,4.33,0,8,2.72,8,8.89v1.27H626c0,3,1.81,4.78,4.49,4.78a3.66,3.66,0,0,0,3.72-2.27l3.88.44c-.74,3.05-3.56,5.06-7.66,5.06C625.1,24.35,621.86,20.83,621.86,15.31Zm12.39-1.76a3.92,3.92,0,0,0-4-4.14A4.23,4.23,0,0,0,626,13.55Z"/><path d="M640.9,19.07c0-4,3.27-5,6.68-5.35,3.11-.33,4.36-.39,4.36-1.58v-.07c0-1.73-1.06-2.72-3-2.72a3.51,3.51,0,0,0-3.61,2.24L641.48,11c.91-3.21,3.75-4.86,7.45-4.86,3.36,0,7.15,1.4,7.15,6.05V24h-4V21.59H652a5.44,5.44,0,0,1-5.17,2.77C643.44,24.36,640.9,22.53,640.9,19.07ZM652,17.69V15.62c-.54.44-2.72.71-3.81.86-1.85.26-3.24.93-3.24,2.52s1.24,2.31,3,2.31C650.37,21.31,652,19.65,652,17.69Z"/><path d="M660.26,6.41h4v3h.21a4.89,4.89,0,0,1,4.86-3.22A4.7,4.7,0,0,1,674,9.4h.19a5.37,5.37,0,0,1,5.28-3.22c3.23,0,5.5,2.09,5.5,6V24h-4.16V12.84a2.84,2.84,0,0,0-3-3.17A3.07,3.07,0,0,0,674.66,13V24h-4.07V12.66a2.81,2.81,0,0,0-3-3,3.35,3.35,0,0,0-3.23,3.64V24h-4.15Z"/><path d="M699.34,11.47a3.08,3.08,0,0,0-3.24-2.2c-1.73,0-3.05.83-3,2,0,1,.7,1.64,2.49,2l3,.64c3.32.72,4.94,2.26,5,4.77,0,3.33-3.12,5.61-7.52,5.61s-7-1.91-7.54-5.14l4-.39c.35,1.58,1.59,2.4,3.49,2.4s3.28-.9,3.28-2.11c0-1-.76-1.65-2.37-2l-3-.63c-3.38-.7-5-2.4-5-5,0-3.25,2.87-5.34,7.11-5.34s6.51,1.9,7.08,4.88Z"/><path d="M101.58,297.29h1.77l3,11.68h.14l3.05-11.68h2l3,11.68h.14l3-11.68h1.77l-3.93,14.34h-1.79l-3.16-11.43h-.12l-3.16,11.43h-1.79Z"/><path d="M119.87,306.34c0-3.31,1.93-5.6,4.84-5.6,2.24,0,4.63,1.37,4.63,5.37v.7h-7.81c.07,2.31,1.41,3.56,3.35,3.56a2.63,2.63,0,0,0,2.69-1.68l1.6.45a4.2,4.2,0,0,1-4.29,2.72C121.77,311.86,119.87,309.64,119.87,306.34Zm7.79-.95a2.92,2.92,0,0,0-3-3.17,3.21,3.21,0,0,0-3.18,3.17Z"/><path d="M132.08,297.29h1.65v5.29h.14a3.27,3.27,0,0,1,3.11-1.84c2.72,0,4.59,2.15,4.59,5.54s-1.87,5.58-4.56,5.58a3.32,3.32,0,0,1-3.14-1.88h-.2v1.65h-1.59Zm4.7,13.08c2.08,0,3.14-1.82,3.14-4.12s-1-4-3.14-4-3.08,1.62-3.08,4S134.79,310.37,136.78,310.37Z"/><path d="M149.86,297.29h1.73v12.8h6.67v1.54h-8.4Z"/><path d="M160.21,306.31c0-3.36,2-5.57,4.88-5.57S170,303,170,306.31s-2,5.55-4.87,5.55S160.21,309.64,160.21,306.31Zm8.1,0c0-2.16-1-4.09-3.22-4.09s-3.22,1.93-3.22,4.09,1,4.06,3.22,4.06S168.31,308.47,168.31,306.31Z"/><path d="M172.42,313.73l1.32-.92a3.38,3.38,0,0,0,3.08,1.62c1.74,0,3-.81,3-2.6v-2.19h-.14a3.28,3.28,0,0,1-3.14,1.83c-2.6,0-4.57-1.91-4.57-5.27s1.88-5.46,4.6-5.46a3.34,3.34,0,0,1,3.14,1.84h.16v-1.7h1.6v11.06c0,2.77-2.07,3.95-4.65,3.95A4.74,4.74,0,0,1,172.42,313.73Zm7.43-7.56c0-2.33-1.07-3.95-3.09-3.95s-3.13,1.77-3.13,3.95,1.06,3.81,3.13,3.81S179.85,308.55,179.85,306.17Z"/><path d="M190.63,303.7a2.28,2.28,0,0,0-2.33-1.54c-1.32,0-2.3.68-2.3,1.6s.58,1.25,1.85,1.57l1.6.39c1.92.47,2.86,1.42,2.86,2.92,0,1.85-1.71,3.22-4.21,3.22-2.19,0-3.7-1-4.09-2.8l1.57-.4a2.27,2.27,0,0,0,2.5,1.74c1.54,0,2.52-.76,2.52-1.68,0-.74-.51-1.26-1.6-1.51l-1.79-.42c-2-.47-2.86-1.46-2.86-3,0-1.82,1.68-3.1,4-3.1a3.63,3.63,0,0,1,3.81,2.54Z"/><path d="M103.7,354.25,109,339.91h1.8L116,354.25H114.2l-1.44-4.06H107l-1.44,4.06Zm8.51-5.6-2.29-6.47h-.12l-2.29,6.47Z"/><path d="M118,343.5h1.6v1.7h.2a3.26,3.26,0,0,1,3.11-1.84c2.71,0,4.59,2.15,4.59,5.54s-1.88,5.58-4.57,5.58a3.31,3.31,0,0,1-3.13-1.88h-.14v5.69H118Zm4.71,9.49c2.07,0,3.14-1.82,3.14-4.12s-1-4-3.14-4-3.08,1.63-3.08,4S120.75,353,122.74,353Z"/><path d="M130,343.5h1.6v1.7h.2a3.27,3.27,0,0,1,3.11-1.84c2.71,0,4.59,2.15,4.59,5.54s-1.88,5.58-4.56,5.58a3.32,3.32,0,0,1-3.14-1.88h-.14v5.69H130Zm4.71,9.49c2.08,0,3.14-1.82,3.14-4.12s-1-4-3.14-4-3.08,1.63-3.08,4S132.76,353,134.75,353Z"/><path d="M147.83,339.91h1.73v12.8h6.67v1.54h-8.4Z"/><path d="M158.18,348.93c0-3.36,2-5.57,4.88-5.57s4.87,2.21,4.87,5.57-2,5.55-4.87,5.55S158.18,352.26,158.18,348.93Zm8.1,0c0-2.16-1-4.09-3.22-4.09s-3.22,1.93-3.22,4.09,1,4.06,3.22,4.06S166.28,351.09,166.28,348.93Z"/><path d="M170.39,356.35l1.32-.92a3.36,3.36,0,0,0,3.08,1.62c1.74,0,3-.81,3-2.6v-2.19h-.14a3.28,3.28,0,0,1-3.14,1.83c-2.6,0-4.57-1.91-4.57-5.27s1.88-5.46,4.6-5.46a3.34,3.34,0,0,1,3.14,1.84h.16v-1.7h1.6v11.06c0,2.77-2.07,3.95-4.65,3.95A4.74,4.74,0,0,1,170.39,356.35Zm7.43-7.56c0-2.32-1.07-4-3.09-4s-3.13,1.77-3.13,4,1.06,3.81,3.13,3.81S177.82,351.17,177.82,348.79Z"/><path d="M188.6,346.32a2.28,2.28,0,0,0-2.33-1.54c-1.32,0-2.3.68-2.3,1.6s.58,1.25,1.85,1.57l1.6.39c1.92.47,2.86,1.42,2.86,2.92,0,1.85-1.71,3.22-4.21,3.22-2.2,0-3.7-1-4.09-2.8l1.57-.4a2.27,2.27,0,0,0,2.5,1.74c1.54,0,2.52-.76,2.52-1.68,0-.74-.51-1.26-1.6-1.51l-1.79-.42c-2-.47-2.86-1.46-2.86-2.94,0-1.83,1.68-3.11,4-3.11a3.63,3.63,0,0,1,3.81,2.54Z"/><path d="M79.25,396.87V382.53h4.63c4.17,0,6.64,2.69,6.64,7.14s-2.47,7.2-6.84,7.2Zm4.32-1.54c3.56,0,5.27-2.15,5.27-5.66s-1.71-5.6-5.08-5.6H81v11.26Z"/><path d="M92.69,393.82c0-2.47,2.18-2.91,4.18-3.17s2.77-.18,2.77-1v-.05a2,2,0,0,0-2.27-2.19,2.91,2.91,0,0,0-2.8,1.63L93,388.5A4.38,4.38,0,0,1,97.32,386c1.37,0,4,.4,4,3.81v7.09H99.64v-1.45h-.08a3.39,3.39,0,0,1-3.2,1.7C94.32,397.12,92.69,395.92,92.69,393.82Zm7-.84v-1.51c-.28.33-2.16.53-2.86.61-1.29.17-2.43.56-2.43,1.82s1,1.74,2.27,1.74A2.76,2.76,0,0,0,99.64,393Z"/><path d="M109,387.52H106.7v6.27c0,1.4.7,1.63,1.42,1.63a3,3,0,0,0,.73-.09l.34,1.49A3.61,3.61,0,0,1,108,397a2.75,2.75,0,0,1-2.92-2.77v-6.72h-1.62v-1.41H105v-2.57h1.66v2.57H109Z"/><path d="M111,393.82c0-2.47,2.18-2.91,4.17-3.17s2.77-.18,2.77-1v-.05a2,2,0,0,0-2.26-2.19,2.92,2.92,0,0,0-2.81,1.63l-1.57-.56A4.39,4.39,0,0,1,115.6,386c1.37,0,4,.4,4,3.81v7.09h-1.66v-1.45h-.08a3.38,3.38,0,0,1-3.19,1.7C112.6,397.12,111,395.92,111,393.82Zm6.94-.84v-1.51c-.28.33-2.15.53-2.85.61-1.29.17-2.44.56-2.44,1.82s1,1.74,2.27,1.74A2.76,2.76,0,0,0,117.92,393Z"/><path d="M122.82,382.53h1.65v5.29h.14a3.29,3.29,0,0,1,3.11-1.85c2.72,0,4.6,2.16,4.6,5.55s-1.88,5.58-4.57,5.58a3.34,3.34,0,0,1-3.14-1.88h-.19v1.65h-1.6Zm4.71,13.08c2.07,0,3.13-1.82,3.13-4.12s-1-4-3.13-4-3.08,1.62-3.08,4S125.54,395.61,127.53,395.61Z"/><path d="M134.33,393.82c0-2.47,2.18-2.91,4.17-3.17s2.78-.18,2.78-1v-.05a2,2,0,0,0-2.27-2.19,2.89,2.89,0,0,0-2.8,1.63l-1.57-.56A4.38,4.38,0,0,1,139,386c1.37,0,4,.4,4,3.81v7.09h-1.65v-1.45h-.09a3.36,3.36,0,0,1-3.19,1.7C136,397.12,134.33,395.92,134.33,393.82Zm6.95-.84v-1.51c-.28.33-2.16.53-2.86.61-1.29.17-2.44.56-2.44,1.82s1,1.74,2.27,1.74A2.77,2.77,0,0,0,141.28,393Z"/><path d="M152.08,388.94a2.25,2.25,0,0,0-2.32-1.54c-1.32,0-2.3.68-2.3,1.6s.57,1.25,1.85,1.57l1.6.39c1.92.47,2.85,1.42,2.85,2.92,0,1.85-1.7,3.22-4.2,3.22-2.2,0-3.7-1-4.09-2.8l1.57-.4a2.26,2.26,0,0,0,2.49,1.74c1.55,0,2.53-.76,2.53-1.68,0-.74-.52-1.26-1.6-1.51l-1.79-.42c-2-.47-2.86-1.46-2.86-2.95,0-1.82,1.68-3.11,3.95-3.11a3.63,3.63,0,0,1,3.81,2.55Z"/><path d="M155.75,391.58c0-3.31,1.93-5.61,4.84-5.61,2.25,0,4.63,1.38,4.63,5.38v.7h-7.81c.07,2.31,1.41,3.56,3.35,3.56a2.63,2.63,0,0,0,2.69-1.68l1.6.45a4.2,4.2,0,0,1-4.29,2.72C157.65,397.1,155.75,394.88,155.75,391.58Zm7.79-.95a2.92,2.92,0,0,0-2.95-3.17,3.21,3.21,0,0,0-3.18,3.17Z"/><path d="M173.5,382.53h1.74v12.8h6.66v1.54h-8.4Z"/><path d="M183.86,391.55c0-3.36,2-5.58,4.87-5.58s4.88,2.22,4.88,5.58-2,5.55-4.88,5.55S183.86,394.88,183.86,391.55Zm8.09,0c0-2.16-1-4.09-3.22-4.09s-3.22,1.93-3.22,4.09,1,4.06,3.22,4.06S192,393.71,192,391.55Z"/><path d="M196.07,399l1.31-.92a3.4,3.4,0,0,0,3.09,1.62c1.73,0,3-.81,3-2.6v-2.19h-.14a3.25,3.25,0,0,1-3.13,1.82c-2.61,0-4.57-1.9-4.57-5.26s1.88-5.47,4.59-5.47a3.33,3.33,0,0,1,3.14,1.85h.17v-1.71h1.6v11.07c0,2.77-2.08,3.95-4.65,3.95A4.73,4.73,0,0,1,196.07,399Zm7.42-7.56c0-2.33-1.06-4-3.08-4s-3.14,1.76-3.14,4,1.07,3.81,3.14,3.81S203.49,393.79,203.49,391.41Z"/><path d="M214.27,388.94A2.26,2.26,0,0,0,212,387.4c-1.32,0-2.3.68-2.3,1.6s.57,1.25,1.85,1.57l1.59.39c1.92.47,2.86,1.42,2.86,2.92,0,1.85-1.7,3.22-4.2,3.22-2.2,0-3.71-1-4.09-2.8l1.57-.4a2.26,2.26,0,0,0,2.49,1.74c1.54,0,2.52-.76,2.52-1.68,0-.74-.51-1.26-1.59-1.51l-1.8-.42c-2-.47-2.86-1.46-2.86-2.95,0-1.82,1.69-3.11,4-3.11a3.62,3.62,0,0,1,3.8,2.55Z"/><path d="M87.94,429.63a3.9,3.9,0,0,0-4-3.05c-2.61,0-4.66,2-4.66,5.74s2,5.74,4.66,5.74a3.9,3.9,0,0,0,4-3.05h1.74a5.6,5.6,0,0,1-5.77,4.68c-3.67,0-6.34-2.83-6.34-7.37S80.24,425,83.91,425a5.6,5.6,0,0,1,5.77,4.68Z"/><path d="M91.74,434.17c0-3.36,2-5.58,4.88-5.58s4.87,2.22,4.87,5.58-2,5.55-4.87,5.55S91.74,437.5,91.74,434.17Zm8.1,0c0-2.16-1-4.09-3.22-4.09s-3.23,1.93-3.23,4.09,1,4.06,3.23,4.06S99.84,436.33,99.84,434.17Z"/><path d="M105.66,439.49H104V428.74h1.59v1.68h.14a3.18,3.18,0,0,1,3.14-1.83c2.18,0,3.64,1.32,3.64,4.07v6.83h-1.65v-6.72a2.38,2.38,0,0,0-2.47-2.69,2.66,2.66,0,0,0-2.74,2.94Z"/><path d="M120.22,430.14h-2.3v6.27c0,1.4.7,1.63,1.43,1.63a3,3,0,0,0,.73-.09l.34,1.49a3.64,3.64,0,0,1-1.24.19,2.74,2.74,0,0,1-2.91-2.77v-6.72h-1.63v-1.4h1.63v-2.58h1.65v2.58h2.3Z"/><path d="M122.2,436.44c0-2.47,2.18-2.91,4.18-3.17s2.77-.18,2.77-1v-.05a2,2,0,0,0-2.27-2.19,2.91,2.91,0,0,0-2.8,1.63l-1.57-.56a4.38,4.38,0,0,1,4.32-2.53c1.37,0,4,.4,4,3.81v7.09h-1.66V438h-.08a3.39,3.39,0,0,1-3.2,1.7C123.83,439.74,122.2,438.54,122.2,436.44Zm7-.84v-1.51c-.28.33-2.16.53-2.86.61-1.28.17-2.43.56-2.43,1.82s1,1.74,2.27,1.74A2.76,2.76,0,0,0,129.15,435.6Z"/><path d="M133.49,425.82a1.18,1.18,0,1,1,1.17,1.12A1.16,1.16,0,0,1,133.49,425.82Zm.33,2.92h1.66v10.75h-1.66Z"/><path d="M140.15,439.49H138.5V428.74h1.6v1.68h.14a3.16,3.16,0,0,1,3.13-1.83c2.18,0,3.65,1.32,3.65,4.07v6.83h-1.66v-6.72a2.37,2.37,0,0,0-2.46-2.69,2.67,2.67,0,0,0-2.75,2.94Z"/><path d="M149.53,434.2c0-3.31,1.93-5.61,4.85-5.61,2.24,0,4.62,1.38,4.62,5.38v.7h-7.81c.08,2.31,1.42,3.56,3.36,3.56a2.64,2.64,0,0,0,2.69-1.68l1.59.45a4.18,4.18,0,0,1-4.28,2.72C151.44,439.72,149.53,437.5,149.53,434.2Zm7.79-.95a2.92,2.92,0,0,0-2.94-3.17,3.21,3.21,0,0,0-3.19,3.17Z"/><path d="M161.52,428.74h1.59v1.62h.11a3,3,0,0,1,2.81-1.79l.86,0v1.69a4.62,4.62,0,0,0-1-.12,2.55,2.55,0,0,0-2.72,2.53v6.8h-1.65Z"/><path d="M174.62,425.15h1.74V438H183v1.54h-8.4Z"/><path d="M185,434.17c0-3.36,2-5.58,4.87-5.58s4.88,2.22,4.88,5.58-2,5.55-4.88,5.55S185,437.5,185,434.17Zm8.1,0c0-2.16-1-4.09-3.23-4.09s-3.22,1.93-3.22,4.09,1,4.06,3.22,4.06S193.08,436.33,193.08,434.17Z"/><path d="M197.19,441.59l1.31-.92a3.4,3.4,0,0,0,3.09,1.62c1.73,0,3-.81,3-2.6V437.5h-.14a3.25,3.25,0,0,1-3.13,1.82c-2.61,0-4.57-1.9-4.57-5.26s1.88-5.47,4.59-5.47a3.33,3.33,0,0,1,3.14,1.85h.17v-1.7h1.6V439.8c0,2.77-2.08,3.95-4.65,3.95A4.73,4.73,0,0,1,197.19,441.59Zm7.42-7.56c0-2.33-1.06-3.95-3.08-3.95s-3.14,1.76-3.14,3.95,1.07,3.81,3.14,3.81S204.61,436.41,204.61,434Z"/><path d="M215.39,431.56a2.26,2.26,0,0,0-2.32-1.54c-1.32,0-2.3.68-2.3,1.6s.57,1.25,1.85,1.57l1.59.39c1.92.47,2.86,1.42,2.86,2.92,0,1.85-1.7,3.22-4.2,3.22-2.2,0-3.71-1-4.09-2.8l1.57-.4a2.26,2.26,0,0,0,2.49,1.74c1.54,0,2.52-.76,2.52-1.68,0-.74-.51-1.26-1.59-1.51l-1.8-.42c-2-.47-2.85-1.46-2.85-2.95,0-1.82,1.68-3.11,3.95-3.11a3.62,3.62,0,0,1,3.8,2.55Z"/><path d="M314.68,293.91h1.74v6.39h7.65v-6.39h1.73v14.35h-1.73v-6.42h-7.65v6.42h-1.74Z"/><path d="M328.54,302.94c0-3.37,2-5.58,4.87-5.58s4.88,2.21,4.88,5.58-2,5.54-4.88,5.54S328.54,306.27,328.54,302.94Zm8.1,0c0-2.16-1-4.1-3.23-4.1s-3.22,1.94-3.22,4.1,1,4.06,3.22,4.06S336.64,305.09,336.64,302.94Z"/><path d="M346.94,300.33a2.26,2.26,0,0,0-2.32-1.54c-1.32,0-2.3.67-2.3,1.6s.57,1.25,1.85,1.56l1.59.4c1.92.47,2.86,1.41,2.86,2.91,0,1.86-1.7,3.22-4.2,3.22-2.2,0-3.71-1-4.09-2.8l1.57-.39a2.27,2.27,0,0,0,2.49,1.74c1.54,0,2.52-.76,2.52-1.69,0-.74-.51-1.26-1.59-1.51l-1.8-.42c-2-.46-2.86-1.46-2.86-2.94,0-1.82,1.69-3.11,4-3.11a3.61,3.61,0,0,1,3.8,2.55Z"/><path d="M355.79,298.9h-2.3v6.28c0,1.4.7,1.62,1.43,1.62a3.19,3.19,0,0,0,.73-.08l.33,1.48a3.24,3.24,0,0,1-1.23.2,2.75,2.75,0,0,1-2.91-2.78V298.9h-1.63v-1.4h1.63v-2.58h1.65v2.58h2.3Z"/><path d="M358.72,310.42h-1.51l4.62-17.18h1.52Z"/><path d="M375.33,298.4a3.91,3.91,0,0,0-4-3.06c-2.61,0-4.65,2-4.65,5.75s2,5.74,4.65,5.74a3.91,3.91,0,0,0,4-3.05h1.74a5.59,5.59,0,0,1-5.77,4.67c-3.67,0-6.33-2.83-6.33-7.36s2.66-7.37,6.33-7.37a5.59,5.59,0,0,1,5.77,4.68Z"/><path d="M379.14,302.94c0-3.37,2-5.58,4.87-5.58s4.87,2.21,4.87,5.58-2,5.54-4.87,5.54S379.14,306.27,379.14,302.94Zm8.09,0c0-2.16-1-4.1-3.22-4.1s-3.22,1.94-3.22,4.1,1,4.06,3.22,4.06S387.23,305.09,387.23,302.94Z"/><path d="M393.05,308.26H391.4V297.5H393v1.68h.15a3.17,3.17,0,0,1,3.13-1.82c2.18,0,3.64,1.32,3.64,4.06v6.84h-1.65v-6.73a2.38,2.38,0,0,0-2.46-2.69,2.67,2.67,0,0,0-2.75,3Z"/><path d="M407.61,298.9h-2.29v6.28c0,1.4.7,1.62,1.42,1.62a3.11,3.11,0,0,0,.73-.08l.34,1.48a3.32,3.32,0,0,1-1.23.2,2.76,2.76,0,0,1-2.92-2.78V298.9H402v-1.4h1.62v-2.58h1.66v2.58h2.29Z"/><path d="M409.6,305.2c0-2.46,2.18-2.9,4.17-3.16s2.78-.18,2.78-1V301a2,2,0,0,0-2.27-2.18,2.9,2.9,0,0,0-2.8,1.62l-1.57-.56a4.37,4.37,0,0,1,4.31-2.52c1.37,0,4,.39,4,3.81v7.09h-1.65V306.8h-.09a3.36,3.36,0,0,1-3.19,1.71C411.22,308.51,409.6,307.31,409.6,305.2Zm6.95-.84v-1.51c-.28.34-2.16.53-2.86.62-1.29.17-2.44.56-2.44,1.82s.95,1.74,2.27,1.74A2.77,2.77,0,0,0,416.55,304.36Z"/><path d="M420.88,294.59a1.18,1.18,0,0,1,2.36,0,1.18,1.18,0,0,1-2.36,0Zm.34,2.91h1.65v10.76h-1.65Z"/><path d="M427.55,308.26h-1.66V297.5h1.6v1.68h.14a3.17,3.17,0,0,1,3.14-1.82c2.18,0,3.64,1.32,3.64,4.06v6.84h-1.65v-6.73a2.38,2.38,0,0,0-2.47-2.69,2.67,2.67,0,0,0-2.74,3Z"/><path d="M436.93,303c0-3.3,1.93-5.6,4.84-5.6,2.24,0,4.62,1.37,4.62,5.38v.7h-7.81c.08,2.3,1.42,3.56,3.36,3.56a2.63,2.63,0,0,0,2.69-1.68l1.6.44a4.19,4.19,0,0,1-4.29,2.72C438.83,308.48,436.93,306.27,436.93,303Zm7.78-.95a2.92,2.92,0,0,0-2.94-3.17,3.23,3.23,0,0,0-3.19,3.17Z"/><path d="M448.91,297.5h1.6v1.63h.11a2.92,2.92,0,0,1,2.8-1.8l.87,0V299a5,5,0,0,0-1-.11,2.54,2.54,0,0,0-2.72,2.52v6.81h-1.65Z"/><path d="M464.09,293.91,469,305.82h.17L474,293.91h2.08v14.35h-1.63v-10.9h-.14l-4.48,10.9h-1.57l-4.48-10.9h-.14v10.9H462V293.91Z"/><path d="M478.81,303c0-3.3,1.93-5.6,4.85-5.6,2.24,0,4.62,1.37,4.62,5.38v.7h-7.81c.08,2.3,1.42,3.56,3.36,3.56a2.64,2.64,0,0,0,2.69-1.68l1.59.44a4.17,4.17,0,0,1-4.28,2.72C480.72,308.48,478.81,306.27,478.81,303Zm7.79-.95a2.92,2.92,0,0,0-2.94-3.17,3.22,3.22,0,0,0-3.19,3.17Z"/><path d="M495.47,298.9h-2.29v6.28c0,1.4.7,1.62,1.43,1.62a3.08,3.08,0,0,0,.72-.08l.34,1.48a3.28,3.28,0,0,1-1.23.2,2.76,2.76,0,0,1-2.92-2.78V298.9H489.9v-1.4h1.62v-2.58h1.66v2.58h2.29Z"/><path d="M498,297.5h1.6v1.63h.11a2.94,2.94,0,0,1,2.8-1.8l.87,0V299a4.86,4.86,0,0,0-1-.11,2.54,2.54,0,0,0-2.71,2.52v6.81H498Z"/><path d="M505,294.59a1.18,1.18,0,1,1,1.18,1.12A1.16,1.16,0,0,1,505,294.59Zm.34,2.91H507v10.76H505.3Z"/><path d="M509.47,302.94c0-3.28,1.93-5.58,4.85-5.58a4,4,0,0,1,4.26,3.36h-1.66a2.52,2.52,0,0,0-2.57-1.88c-1.94,0-3.23,1.6-3.23,4s1.26,4.12,3.23,4.12a2.49,2.49,0,0,0,2.57-1.88h1.66a4,4,0,0,1-4.23,3.36C511.32,308.48,509.47,306.16,509.47,302.94Z"/><path d="M527.12,300.33a2.28,2.28,0,0,0-2.33-1.54c-1.32,0-2.3.67-2.3,1.6s.58,1.25,1.85,1.56l1.6.4c1.92.47,2.86,1.41,2.86,2.91,0,1.86-1.71,3.22-4.21,3.22-2.2,0-3.7-1-4.09-2.8l1.57-.39a2.28,2.28,0,0,0,2.5,1.74c1.54,0,2.52-.76,2.52-1.69,0-.74-.51-1.26-1.6-1.51l-1.79-.42c-2-.46-2.86-1.46-2.86-2.94,0-1.82,1.68-3.11,3.95-3.11a3.62,3.62,0,0,1,3.81,2.55Z"/><path d="M341.22,350.88V336.53h4.63c4.17,0,6.64,2.69,6.64,7.15s-2.47,7.2-6.84,7.2Zm4.32-1.54c3.56,0,5.27-2.16,5.27-5.66s-1.71-5.6-5.08-5.6H343v11.26Z"/><path d="M354.66,347.82c0-2.46,2.18-2.9,4.18-3.16s2.77-.18,2.77-1v-.06a2,2,0,0,0-2.27-2.18,2.92,2.92,0,0,0-2.8,1.62L355,342.5a4.37,4.37,0,0,1,4.32-2.52c1.37,0,4,.39,4,3.81v7.09h-1.65v-1.46h-.08a3.39,3.39,0,0,1-3.2,1.71C356.29,351.13,354.66,349.93,354.66,347.82Zm6.95-.84v-1.51c-.28.34-2.16.53-2.86.62-1.28.17-2.43.56-2.43,1.82s.95,1.74,2.27,1.74A2.76,2.76,0,0,0,361.61,347Z"/><path d="M371,341.52h-2.3v6.28c0,1.4.71,1.62,1.43,1.62a3.11,3.11,0,0,0,.73-.08l.34,1.48a3.34,3.34,0,0,1-1.24.2,2.75,2.75,0,0,1-2.91-2.78v-6.72h-1.62v-1.4H367v-2.58h1.65v2.58H371Z"/><path d="M373,347.82c0-2.46,2.17-2.9,4.17-3.16s2.77-.18,2.77-1v-.06a2,2,0,0,0-2.26-2.18,2.93,2.93,0,0,0-2.81,1.62l-1.57-.56a4.38,4.38,0,0,1,4.32-2.52c1.37,0,4,.39,4,3.81v7.09h-1.66v-1.46h-.08a3.39,3.39,0,0,1-3.19,1.71C374.57,351.13,373,349.93,373,347.82Zm6.94-.84v-1.51c-.28.34-2.15.53-2.85.62-1.29.17-2.44.56-2.44,1.82s.95,1.74,2.27,1.74A2.76,2.76,0,0,0,379.89,347Z"/><path d="M384.79,336.53h1.65v5.3h.14a3.29,3.29,0,0,1,3.11-1.85c2.72,0,4.6,2.16,4.6,5.55s-1.88,5.57-4.57,5.57a3.35,3.35,0,0,1-3.14-1.87h-.19v1.65h-1.6Zm4.71,13.09c2.07,0,3.13-1.82,3.13-4.12s-1-4-3.13-4-3.09,1.62-3.09,4S387.51,349.62,389.5,349.62Z"/><path d="M396.3,347.82c0-2.46,2.18-2.9,4.17-3.16s2.78-.18,2.78-1v-.06a2,2,0,0,0-2.27-2.18,2.9,2.9,0,0,0-2.8,1.62l-1.57-.56a4.37,4.37,0,0,1,4.31-2.52c1.37,0,4,.39,4,3.81v7.09h-1.65v-1.46h-.09a3.36,3.36,0,0,1-3.19,1.71C397.92,351.13,396.3,349.93,396.3,347.82Zm6.95-.84v-1.51c-.28.34-2.16.53-2.86.62-1.29.17-2.44.56-2.44,1.82s.95,1.74,2.27,1.74A2.77,2.77,0,0,0,403.25,347Z"/><path d="M414.05,343a2.25,2.25,0,0,0-2.32-1.54c-1.32,0-2.3.67-2.3,1.6s.57,1.25,1.85,1.56l1.6.4c1.92.47,2.85,1.41,2.85,2.91,0,1.86-1.7,3.22-4.2,3.22-2.2,0-3.7-1-4.09-2.8l1.57-.39a2.27,2.27,0,0,0,2.49,1.74c1.54,0,2.53-.76,2.53-1.69,0-.74-.52-1.26-1.6-1.51l-1.79-.42c-2-.46-2.86-1.46-2.86-2.94,0-1.82,1.68-3.11,4-3.11a3.62,3.62,0,0,1,3.81,2.55Z"/><path d="M417.72,345.58c0-3.3,1.93-5.6,4.84-5.6,2.25,0,4.63,1.37,4.63,5.38v.7h-7.81c.07,2.3,1.41,3.56,3.35,3.56a2.63,2.63,0,0,0,2.69-1.68l1.6.44a4.19,4.19,0,0,1-4.29,2.72C419.62,351.1,417.72,348.89,417.72,345.58Zm7.79-.95a2.91,2.91,0,0,0-2.95-3.16,3.2,3.2,0,0,0-3.18,3.16Z"/><path d="M437.54,336.53l4.88,11.91h.16l4.88-11.91h2.07v14.35h-1.62V340h-.14l-4.49,10.9h-1.56L437.23,340h-.14v10.9h-1.62V336.53Z"/><path d="M452.27,345.58c0-3.3,1.93-5.6,4.85-5.6,2.24,0,4.62,1.37,4.62,5.38v.7h-7.81c.08,2.3,1.41,3.56,3.35,3.56a2.63,2.63,0,0,0,2.69-1.68l1.6.44a4.18,4.18,0,0,1-4.29,2.72C454.17,351.1,452.27,348.89,452.27,345.58Zm7.79-.95a2.91,2.91,0,0,0-2.94-3.16,3.21,3.21,0,0,0-3.19,3.16Z"/><path d="M468.93,341.52h-2.3v6.28c0,1.4.7,1.62,1.43,1.62a3.11,3.11,0,0,0,.73-.08l.34,1.48a3.32,3.32,0,0,1-1.23.2,2.76,2.76,0,0,1-2.92-2.78v-6.72h-1.62v-1.4H465v-2.58h1.65v2.58h2.3Z"/><path d="M471.42,340.12H473v1.63h.11a2.92,2.92,0,0,1,2.8-1.8l.87,0v1.68a5,5,0,0,0-1-.11,2.54,2.54,0,0,0-2.72,2.52v6.81h-1.65Z"/><path d="M478.42,337.21a1.18,1.18,0,1,1,1.18,1.12A1.15,1.15,0,0,1,478.42,337.21Zm.34,2.91h1.65v10.76h-1.65Z"/><path d="M482.93,345.56c0-3.28,1.93-5.58,4.84-5.58a4,4,0,0,1,4.26,3.36h-1.65a2.52,2.52,0,0,0-2.58-1.87c-1.93,0-3.22,1.59-3.22,4s1.26,4.12,3.22,4.12a2.51,2.51,0,0,0,2.58-1.88H492a4,4,0,0,1-4.23,3.36C484.78,351.1,482.93,348.78,482.93,345.56Z"/><path d="M500.57,343a2.26,2.26,0,0,0-2.32-1.54c-1.32,0-2.3.67-2.3,1.6s.57,1.25,1.85,1.56l1.59.4c1.92.47,2.86,1.41,2.86,2.91,0,1.86-1.7,3.22-4.2,3.22-2.2,0-3.71-1-4.09-2.8l1.57-.39a2.27,2.27,0,0,0,2.49,1.74c1.54,0,2.52-.76,2.52-1.69,0-.74-.51-1.26-1.59-1.51l-1.8-.42c-2-.46-2.85-1.46-2.85-2.94,0-1.82,1.68-3.11,3.95-3.11a3.63,3.63,0,0,1,3.81,2.55Z"/><path d="M357.47,393.5h-1.68L348,382.24h-.14V393.5H346.1V379.15h1.68l7.84,11.29h.14V379.15h1.71Z"/><path d="M360.21,388.2c0-3.3,1.93-5.6,4.84-5.6,2.25,0,4.63,1.37,4.63,5.38v.7h-7.81c.07,2.3,1.41,3.56,3.35,3.56a2.63,2.63,0,0,0,2.69-1.68l1.6.44a4.19,4.19,0,0,1-4.29,2.72C362.11,393.72,360.21,391.51,360.21,388.2Zm7.79-.95a2.92,2.92,0,0,0-2.95-3.17,3.21,3.21,0,0,0-3.18,3.17Z"/><path d="M376.87,384.14h-2.3v6.28c0,1.4.7,1.62,1.43,1.62a3.11,3.11,0,0,0,.73-.08l.34,1.48a3.34,3.34,0,0,1-1.24.2,2.75,2.75,0,0,1-2.91-2.78v-6.72h-1.63v-1.4h1.63v-2.58h1.65v2.58h2.3Z"/><path d="M378.52,382.74h1.74l2.32,8.24h.11l2.3-8.24h1.77L389,391h.12l2.32-8.21h1.74l-3.28,10.76H388.3l-2.36-8.27h-.16l-2.36,8.27H381.8Z"/><path d="M394.51,388.18c0-3.37,2-5.58,4.87-5.58s4.88,2.21,4.88,5.58-2,5.54-4.88,5.54S394.51,391.51,394.51,388.18Zm8.09,0c0-2.16-1-4.1-3.22-4.1s-3.22,1.94-3.22,4.1,1,4.06,3.22,4.06S402.6,390.33,402.6,388.18Z"/><path d="M406.77,382.74h1.6v1.62h.11a2.93,2.93,0,0,1,2.8-1.79l.87,0v1.68a5,5,0,0,0-1-.11,2.54,2.54,0,0,0-2.72,2.52v6.81h-1.65Z"/><path d="M414.11,379.15h1.65v8.38h.2l4.7-4.79h2l-4.55,4.59L423,393.5h-2.1l-4-5.1-1.15,1.07v4h-1.65Z"/><path d="M432.67,379.15l4.88,11.91h.16l4.88-11.91h2.07V393.5H443V382.6h-.14l-4.49,10.9h-1.56l-4.49-10.9h-.14v10.9H430.6V379.15Z"/><path d="M447.4,388.2c0-3.3,1.93-5.6,4.84-5.6,2.25,0,4.63,1.37,4.63,5.38v.7h-7.81c.07,2.3,1.41,3.56,3.35,3.56a2.63,2.63,0,0,0,2.69-1.68l1.6.44a4.19,4.19,0,0,1-4.29,2.72C449.3,393.72,447.4,391.51,447.4,388.2Zm7.79-.95a2.92,2.92,0,0,0-2.95-3.17,3.21,3.21,0,0,0-3.18,3.17Z"/><path d="M464.06,384.14h-2.3v6.28c0,1.4.7,1.62,1.43,1.62a3.11,3.11,0,0,0,.73-.08l.34,1.48a3.34,3.34,0,0,1-1.24.2,2.75,2.75,0,0,1-2.91-2.78v-6.72h-1.63v-1.4h1.63v-2.58h1.65v2.58h2.3Z"/><path d="M466.55,382.74h1.6v1.62h.11a2.93,2.93,0,0,1,2.8-1.79l.87,0v1.68a5,5,0,0,0-1-.11,2.54,2.54,0,0,0-2.72,2.52v6.81h-1.65Z"/><path d="M473.55,379.83a1.18,1.18,0,1,1,1.18,1.12A1.15,1.15,0,0,1,473.55,379.83Zm.33,2.91h1.66V393.5h-1.66Z"/><path d="M478.06,388.18c0-3.28,1.93-5.58,4.84-5.58a4,4,0,0,1,4.26,3.36h-1.65a2.52,2.52,0,0,0-2.58-1.88c-1.93,0-3.22,1.6-3.22,4s1.26,4.12,3.22,4.12a2.51,2.51,0,0,0,2.58-1.88h1.65a4,4,0,0,1-4.23,3.36C479.91,393.72,478.06,391.4,478.06,388.18Z"/><path d="M495.7,385.57a2.27,2.27,0,0,0-2.33-1.54c-1.31,0-2.29.67-2.29,1.6s.57,1.25,1.85,1.56l1.59.4c1.92.47,2.86,1.41,2.86,2.91,0,1.86-1.7,3.22-4.2,3.22-2.2,0-3.71-1-4.09-2.8l1.57-.39a2.26,2.26,0,0,0,2.49,1.73c1.54,0,2.52-.75,2.52-1.68,0-.74-.51-1.26-1.59-1.51l-1.8-.42c-2-.46-2.86-1.46-2.86-2.94,0-1.82,1.69-3.11,3.95-3.11a3.62,3.62,0,0,1,3.81,2.55Z"/><path d="M353.53,423.12c-1.9,0-3.16,1-3.16,2.38,0,1.54,1.71,2.1,2.77,2.38l1.46.39c1.48.4,4,1.26,4,4,0,2.33-1.88,4.15-5.18,4.15-3.08,0-5-1.6-5.16-3.95h1.8c.14,1.62,1.65,2.38,3.36,2.38,2,0,3.5-1,3.5-2.6s-1.34-2-2.86-2.39l-1.76-.5c-2.24-.64-3.64-1.79-3.64-3.73,0-2.4,2.15-4,4.9-4s4.77,1.62,4.84,3.78h-1.68C356.59,424,355.27,423.12,353.53,423.12Z"/><path d="M365.94,426.76h-2.3V433c0,1.4.7,1.62,1.43,1.62a3.19,3.19,0,0,0,.73-.08l.33,1.48a3.24,3.24,0,0,1-1.23.2,2.75,2.75,0,0,1-2.91-2.78v-6.72h-1.63v-1.4H362v-2.58h1.65v2.58h2.3Z"/><path d="M367.81,430.8c0-3.37,2-5.58,4.87-5.58s4.88,2.21,4.88,5.58-2,5.54-4.88,5.54S367.81,434.13,367.81,430.8Zm8.1,0c0-2.16-1-4.1-3.23-4.1s-3.22,1.94-3.22,4.1,1,4.06,3.22,4.06S375.91,433,375.91,430.8Z"/><path d="M380.07,425.36h1.6V427h.11a2.92,2.92,0,0,1,2.8-1.8l.87,0v1.68a5,5,0,0,0-1-.11,2.53,2.53,0,0,0-2.71,2.52v6.81h-1.66Z"/><path d="M386.9,433.06c0-2.46,2.18-2.9,4.18-3.16s2.77-.18,2.77-1v-.06a2,2,0,0,0-2.27-2.18,2.92,2.92,0,0,0-2.8,1.62l-1.57-.56a4.37,4.37,0,0,1,4.32-2.52c1.37,0,4,.39,4,3.81v7.09h-1.65v-1.46h-.08a3.39,3.39,0,0,1-3.2,1.71C388.53,436.37,386.9,435.17,386.9,433.06Zm7-.84v-1.51c-.28.34-2.16.53-2.86.62-1.28.17-2.43.56-2.43,1.82s.95,1.73,2.27,1.73A2.75,2.75,0,0,0,393.85,432.22Z"/><path d="M398.47,438.22l1.31-.93a3.38,3.38,0,0,0,3.09,1.63c1.73,0,3-.81,3-2.61v-2.18h-.14a3.25,3.25,0,0,1-3.13,1.82C400,436,398,434,398,430.68s1.88-5.46,4.59-5.46a3.31,3.31,0,0,1,3.14,1.85h.17v-1.71h1.6v11.07c0,2.77-2.08,3.95-4.65,3.95A4.73,4.73,0,0,1,398.47,438.22Zm7.42-7.57c0-2.32-1.06-3.95-3.08-3.95s-3.14,1.77-3.14,3.95,1.07,3.82,3.14,3.82S405.89,433,405.89,430.65Z"/><path d="M410,430.82c0-3.3,1.93-5.6,4.85-5.6,2.24,0,4.62,1.37,4.62,5.38v.7h-7.81c.08,2.3,1.42,3.56,3.36,3.56a2.64,2.64,0,0,0,2.69-1.68l1.59.44a4.17,4.17,0,0,1-4.28,2.72C411.94,436.34,410,434.13,410,430.82Zm7.79-.95a2.92,2.92,0,0,0-2.94-3.17,3.22,3.22,0,0,0-3.19,3.17Z"/><path d="M429.86,421.77l4.87,11.91h.17l4.87-11.91h2.08v14.35h-1.63v-10.9h-.14l-4.48,10.9H434l-4.48-10.9h-.14v10.9h-1.63V421.77Z"/><path d="M444.58,430.82c0-3.3,1.94-5.6,4.85-5.6,2.24,0,4.62,1.37,4.62,5.38v.7h-7.81c.08,2.3,1.42,3.56,3.36,3.56a2.64,2.64,0,0,0,2.69-1.68l1.59.44a4.17,4.17,0,0,1-4.28,2.72C446.49,436.34,444.58,434.13,444.58,430.82Zm7.79-.95a2.92,2.92,0,0,0-2.94-3.17,3.22,3.22,0,0,0-3.19,3.17Z"/><path d="M461.24,426.76H459V433c0,1.4.7,1.62,1.43,1.62a3.08,3.08,0,0,0,.72-.08l.34,1.48a3.24,3.24,0,0,1-1.23.2,2.76,2.76,0,0,1-2.92-2.78v-6.72h-1.62v-1.4h1.62v-2.58H459v2.58h2.29Z"/><path d="M463.73,425.36h1.6V427h.11a2.94,2.94,0,0,1,2.8-1.8l.87,0v1.68a4.86,4.86,0,0,0-1-.11,2.54,2.54,0,0,0-2.71,2.52v6.81h-1.66Z"/><path d="M470.73,422.45a1.18,1.18,0,1,1,1.18,1.12A1.16,1.16,0,0,1,470.73,422.45Zm.34,2.91h1.65v10.76h-1.65Z"/><path d="M475.24,430.8c0-3.28,1.93-5.58,4.85-5.58a4,4,0,0,1,4.26,3.36h-1.66a2.52,2.52,0,0,0-2.57-1.88c-1.94,0-3.23,1.6-3.23,4s1.27,4.12,3.23,4.12a2.49,2.49,0,0,0,2.57-1.88h1.66a4,4,0,0,1-4.23,3.36C477.09,436.34,475.24,434,475.24,430.8Z"/><path d="M492.89,428.19a2.28,2.28,0,0,0-2.33-1.54c-1.32,0-2.3.67-2.3,1.6s.58,1.25,1.85,1.56l1.6.4c1.92.47,2.86,1.41,2.86,2.91,0,1.86-1.71,3.22-4.21,3.22-2.2,0-3.7-1-4.09-2.8l1.57-.39a2.28,2.28,0,0,0,2.5,1.73c1.54,0,2.52-.75,2.52-1.68,0-.74-.51-1.26-1.6-1.51l-1.79-.42c-2-.46-2.86-1.46-2.86-2.94,0-1.82,1.68-3.11,3.95-3.11a3.62,3.62,0,0,1,3.81,2.55Z"/><path d="M602.9,296h4.84c3.36,0,4.88,1.86,4.88,4.4a3.92,3.92,0,0,1-2.69,4l3.25,5.92h-2l-3-5.61h-3.5v5.6H602.9Zm4.81,7.17c2.3,0,3.2-1,3.2-2.77s-.9-2.86-3.22-2.86h-3.06v5.63Z"/><path d="M614.66,305c0-3.31,1.93-5.61,4.84-5.61,2.24,0,4.62,1.38,4.62,5.38v.7h-7.81c.08,2.31,1.42,3.56,3.36,3.56a2.63,2.63,0,0,0,2.69-1.68l1.6.45a4.21,4.21,0,0,1-4.29,2.72C616.56,310.55,614.66,308.33,614.66,305Zm7.78-1a2.91,2.91,0,0,0-2.94-3.16,3.22,3.22,0,0,0-3.19,3.16Z"/><path d="M626.13,307.27c0-2.47,2.18-2.91,4.18-3.17s2.77-.18,2.77-1v-.05a2,2,0,0,0-2.27-2.19,2.91,2.91,0,0,0-2.8,1.63l-1.57-.56a4.37,4.37,0,0,1,4.32-2.53c1.37,0,4,.4,4,3.81v7.09h-1.66v-1.46H633a3.38,3.38,0,0,1-3.2,1.71C627.76,310.57,626.13,309.37,626.13,307.27Zm7-.84v-1.52c-.28.34-2.16.54-2.86.62-1.28.17-2.43.56-2.43,1.82s1,1.74,2.27,1.74A2.76,2.76,0,0,0,633.08,306.43Z"/><path d="M639.41,310.32h-1.66V296h1.66Z"/><path d="M659.35,296v9.49c0,2.95-2.2,5.1-5.58,5.1s-5.57-2.15-5.57-5.1V296h1.73v9.35a3.85,3.85,0,0,0,7.68,0V296Z"/><path d="M668.73,302.39a2.28,2.28,0,0,0-2.33-1.54c-1.32,0-2.3.67-2.3,1.6s.58,1.25,1.85,1.57l1.6.39c1.92.47,2.86,1.41,2.86,2.91,0,1.86-1.71,3.23-4.21,3.23-2.2,0-3.7-1-4.09-2.81l1.57-.39a2.27,2.27,0,0,0,2.5,1.74c1.54,0,2.52-.76,2.52-1.68,0-.74-.51-1.26-1.6-1.51l-1.79-.43c-2-.46-2.86-1.45-2.86-2.94,0-1.82,1.68-3.11,3.95-3.11a3.63,3.63,0,0,1,3.81,2.55Z"/><path d="M672.39,305c0-3.31,1.93-5.61,4.85-5.61,2.24,0,4.62,1.38,4.62,5.38v.7h-7.81c.08,2.31,1.41,3.56,3.35,3.56a2.63,2.63,0,0,0,2.69-1.68l1.6.45a4.19,4.19,0,0,1-4.29,2.72C674.29,310.55,672.39,308.33,672.39,305Zm7.79-1a2.91,2.91,0,0,0-2.94-3.16,3.21,3.21,0,0,0-3.19,3.16Z"/><path d="M684.37,299.56H686v1.63h.11a2.91,2.91,0,0,1,2.8-1.79l.87,0v1.68a5.84,5.84,0,0,0-1-.11,2.54,2.54,0,0,0-2.71,2.52v6.81h-1.66Z"/><path d="M699.55,296l4.87,11.9h.17l4.88-11.9h2.07v14.34h-1.62v-10.9h-.14l-4.49,10.9h-1.57l-4.48-10.9h-.14v10.9h-1.62V296Z"/><path d="M714.28,305c0-3.36,2-5.58,4.87-5.58S724,301.64,724,305s-2,5.55-4.88,5.55S714.28,308.33,714.28,305Zm8.09,0c0-2.16-1-4.09-3.22-4.09s-3.22,1.93-3.22,4.09,1,4.06,3.22,4.06S722.37,307.16,722.37,305Z"/><path d="M728.19,310.32h-1.65V299.56h1.6v1.68h.14a3.17,3.17,0,0,1,3.13-1.82c2.18,0,3.65,1.32,3.65,4.07v6.83H733.4V303.6a2.37,2.37,0,0,0-2.46-2.69,2.67,2.67,0,0,0-2.75,2.94Z"/><path d="M737.74,296.65a1.18,1.18,0,1,1,1.18,1.12A1.15,1.15,0,0,1,737.74,296.65Zm.34,2.91h1.65v10.76h-1.65Z"/><path d="M747.43,301h-2.3v6.28c0,1.4.7,1.62,1.43,1.62a3.11,3.11,0,0,0,.73-.08l.34,1.49a3.64,3.64,0,0,1-1.24.19,2.74,2.74,0,0,1-2.91-2.77V301h-1.63v-1.4h1.63V297h1.65v2.57h2.3Z"/><path d="M749.3,305c0-3.36,2-5.58,4.88-5.58s4.87,2.22,4.87,5.58-2,5.55-4.87,5.55S749.3,308.33,749.3,305Zm8.1,0c0-2.16-1-4.09-3.22-4.09S751,302.84,751,305s1,4.06,3.23,4.06S757.4,307.16,757.4,305Z"/><path d="M761.57,299.56h1.59v1.63h.12a2.91,2.91,0,0,1,2.8-1.79l.87,0v1.68a6,6,0,0,0-1-.11,2.55,2.55,0,0,0-2.72,2.52v6.81h-1.65Z"/><path d="M768.57,296.65a1.18,1.18,0,1,1,1.17,1.12A1.15,1.15,0,0,1,768.57,296.65Zm.33,2.91h1.66v10.76H768.9Z"/><path d="M775.23,310.32h-1.65V299.56h1.59v1.68h.15a3.17,3.17,0,0,1,3.13-1.82c2.18,0,3.64,1.32,3.64,4.07v6.83h-1.65V303.6a2.37,2.37,0,0,0-2.46-2.69,2.66,2.66,0,0,0-2.75,2.94Z"/><path d="M785.06,312.42l1.31-.92a3.4,3.4,0,0,0,3.09,1.62c1.73,0,3-.81,3-2.6v-2.19h-.14a3.25,3.25,0,0,1-3.13,1.82c-2.61,0-4.57-1.9-4.57-5.26s1.88-5.47,4.59-5.47a3.31,3.31,0,0,1,3.14,1.85h.17v-1.71h1.6v11.07c0,2.77-2.08,3.95-4.65,3.95A4.73,4.73,0,0,1,785.06,312.42Zm7.42-7.56c0-2.33-1.06-3.95-3.08-3.95s-3.14,1.76-3.14,3.95,1.07,3.81,3.14,3.81S792.48,307.24,792.48,304.86Z"/><path d="M592.09,338.6h10.75v1.54h-4.51v12.8H596.6v-12.8h-4.51Z"/><path d="M604.18,342.18h1.6v1.63h.11a2.92,2.92,0,0,1,2.8-1.79l.87,0v1.68a5.84,5.84,0,0,0-1-.11,2.55,2.55,0,0,0-2.71,2.52v6.81h-1.66Z"/><path d="M611,349.89c0-2.47,2.17-2.91,4.17-3.17s2.77-.18,2.77-1v-.05a2,2,0,0,0-2.27-2.19,2.91,2.91,0,0,0-2.8,1.63l-1.57-.56a4.37,4.37,0,0,1,4.32-2.53c1.37,0,4,.4,4,3.81v7.09H618v-1.46h-.08a3.37,3.37,0,0,1-3.19,1.71C612.64,353.19,611,352,611,349.89Zm6.94-.84v-1.52c-.28.34-2.15.54-2.85.62-1.29.17-2.44.56-2.44,1.82s1,1.74,2.27,1.74A2.76,2.76,0,0,0,618,349.05Z"/><path d="M624.29,352.94h-1.66V342.18h1.6v1.68h.14a3.18,3.18,0,0,1,3.14-1.82c2.18,0,3.64,1.32,3.64,4.07v6.83H629.5v-6.72a2.38,2.38,0,0,0-2.47-2.69,2.66,2.66,0,0,0-2.74,2.94Z"/><path d="M640.31,345a2.28,2.28,0,0,0-2.33-1.54c-1.32,0-2.3.67-2.3,1.6s.58,1.25,1.85,1.57l1.6.39c1.92.47,2.86,1.42,2.86,2.91,0,1.86-1.71,3.23-4.21,3.23-2.19,0-3.7-1-4.09-2.81l1.57-.39a2.28,2.28,0,0,0,2.5,1.74c1.54,0,2.52-.76,2.52-1.68,0-.74-.51-1.26-1.6-1.51l-1.79-.43c-2-.46-2.86-1.45-2.86-2.94,0-1.82,1.68-3.11,4-3.11a3.63,3.63,0,0,1,3.81,2.55Z"/><path d="M644,349.89c0-2.47,2.18-2.91,4.17-3.17s2.78-.18,2.78-1v-.05a2,2,0,0,0-2.27-2.19,2.89,2.89,0,0,0-2.8,1.63l-1.57-.56a4.36,4.36,0,0,1,4.31-2.53c1.38,0,4,.4,4,3.81v7.09h-1.65v-1.46h-.09a3.35,3.35,0,0,1-3.19,1.71C645.6,353.19,644,352,644,349.89Zm6.95-.84v-1.52c-.28.34-2.16.54-2.86.62-1.29.17-2.44.56-2.44,1.82s1,1.74,2.27,1.74A2.77,2.77,0,0,0,650.92,349.05Z"/><path d="M655.09,347.62c0-3.28,1.93-5.58,4.84-5.58a4,4,0,0,1,4.26,3.37h-1.65a2.53,2.53,0,0,0-2.58-1.88c-1.93,0-3.22,1.6-3.22,4s1.26,4.12,3.22,4.12a2.51,2.51,0,0,0,2.58-1.88h1.65a4,4,0,0,1-4.23,3.37C656.93,353.17,655.09,350.84,655.09,347.62Z"/><path d="M671.27,343.58H669v6.28c0,1.4.7,1.62,1.42,1.62a3.11,3.11,0,0,0,.73-.08l.34,1.49a3.61,3.61,0,0,1-1.23.19,2.75,2.75,0,0,1-2.92-2.77v-6.73H665.7v-1.4h1.62v-2.57H669v2.57h2.29Z"/><path d="M673.43,339.27a1.18,1.18,0,1,1,1.17,1.12A1.15,1.15,0,0,1,673.43,339.27Zm.33,2.91h1.65v10.76h-1.65Z"/><path d="M677.93,347.62c0-3.36,2-5.58,4.88-5.58s4.87,2.22,4.87,5.58-2,5.55-4.87,5.55S677.93,351,677.93,347.62Zm8.1,0c0-2.16-1-4.09-3.22-4.09s-3.22,1.93-3.22,4.09,1,4.06,3.22,4.06S686,349.78,686,347.62Z"/><path d="M691.85,352.94H690.2V342.18h1.59v1.68h.14a3.19,3.19,0,0,1,3.14-1.82c2.18,0,3.64,1.32,3.64,4.07v6.83h-1.65v-6.72a2.37,2.37,0,0,0-2.46-2.69,2.66,2.66,0,0,0-2.75,2.94Z"/><path d="M709.57,338.6l4.88,11.9h.17l4.87-11.9h2.07v14.34h-1.62V342h-.14l-4.48,10.9h-1.57L709.27,342h-.14v10.9H707.5V338.6Z"/><path d="M724.3,347.62c0-3.36,2-5.58,4.87-5.58s4.88,2.22,4.88,5.58-2,5.55-4.88,5.55S724.3,351,724.3,347.62Zm8.1,0c0-2.16-1-4.09-3.23-4.09s-3.22,1.93-3.22,4.09,1,4.06,3.22,4.06S732.4,349.78,732.4,347.62Z"/><path d="M738.22,352.94h-1.66V342.18h1.6v1.68h.14a3.17,3.17,0,0,1,3.14-1.82c2.18,0,3.64,1.32,3.64,4.07v6.83h-1.65v-6.72a2.38,2.38,0,0,0-2.47-2.69,2.66,2.66,0,0,0-2.74,2.94Z"/><path d="M747.76,339.27a1.18,1.18,0,1,1,1.18,1.12A1.16,1.16,0,0,1,747.76,339.27Zm.34,2.91h1.65v10.76H748.1Z"/><path d="M757.45,343.58h-2.29v6.28c0,1.4.7,1.62,1.43,1.62a3.08,3.08,0,0,0,.72-.08l.34,1.49a3.57,3.57,0,0,1-1.23.19,2.75,2.75,0,0,1-2.92-2.77v-6.73h-1.62v-1.4h1.62v-2.57h1.66v2.57h2.29Z"/><path d="M759.33,347.62c0-3.36,2-5.58,4.87-5.58s4.88,2.22,4.88,5.58-2,5.55-4.88,5.55S759.33,351,759.33,347.62Zm8.09,0c0-2.16-1-4.09-3.22-4.09s-3.22,1.93-3.22,4.09,1,4.06,3.22,4.06S767.42,349.78,767.42,347.62Z"/><path d="M771.59,342.18h1.6v1.63h.11a2.91,2.91,0,0,1,2.8-1.79l.87,0v1.68a5.84,5.84,0,0,0-1-.11,2.55,2.55,0,0,0-2.72,2.52v6.81h-1.65Z"/><path d="M778.59,339.27a1.18,1.18,0,1,1,1.18,1.12A1.15,1.15,0,0,1,778.59,339.27Zm.34,2.91h1.65v10.76h-1.65Z"/><path d="M785.26,352.94H783.6V342.18h1.6v1.68h.14a3.17,3.17,0,0,1,3.14-1.82c2.18,0,3.64,1.32,3.64,4.07v6.83h-1.65v-6.72a2.38,2.38,0,0,0-2.47-2.69,2.66,2.66,0,0,0-2.74,2.94Z"/><path d="M795.08,355l1.32-.92a3.38,3.38,0,0,0,3.08,1.62c1.74,0,3-.81,3-2.6V351h-.14a3.28,3.28,0,0,1-3.14,1.82c-2.61,0-4.57-1.9-4.57-5.26s1.88-5.47,4.6-5.47a3.34,3.34,0,0,1,3.14,1.85h.16v-1.71h1.6v11.07c0,2.77-2.07,3.95-4.65,3.95A4.74,4.74,0,0,1,795.08,355Zm7.43-7.56c0-2.33-1.07-4-3.09-4s-3.13,1.76-3.13,4,1.06,3.81,3.13,3.81S802.51,349.86,802.51,347.48Z"/><path d="M611.35,395.56V381.22H616c4.18,0,6.64,2.69,6.64,7.14s-2.46,7.2-6.83,7.2Zm4.31-1.54c3.56,0,5.27-2.16,5.27-5.66s-1.71-5.6-5.07-5.6h-2.77V394Z"/><path d="M625,381.89a1.18,1.18,0,1,1,1.18,1.12A1.15,1.15,0,0,1,625,381.89Zm.33,2.91H627v10.76h-1.66Z"/><path d="M636.11,387.63a2.28,2.28,0,0,0-2.33-1.54c-1.32,0-2.3.67-2.3,1.6s.58,1.25,1.85,1.57l1.6.39c1.92.47,2.86,1.41,2.86,2.91,0,1.86-1.71,3.23-4.21,3.23-2.19,0-3.7-1-4.09-2.81l1.57-.39a2.27,2.27,0,0,0,2.5,1.74c1.54,0,2.52-.76,2.52-1.68,0-.74-.51-1.26-1.6-1.52l-1.79-.42c-2-.46-2.86-1.45-2.86-2.94,0-1.82,1.68-3.11,3.95-3.11a3.63,3.63,0,0,1,3.81,2.55Z"/><path d="M645,386.2h-2.29v6.28c0,1.4.7,1.62,1.42,1.62a3.11,3.11,0,0,0,.73-.08l.34,1.49a3.61,3.61,0,0,1-1.23.19,2.76,2.76,0,0,1-2.92-2.77V386.2h-1.62v-1.4H641v-2.57h1.66v2.57H645Z"/><path d="M647.44,384.8H649v1.63h.11a2.91,2.91,0,0,1,2.8-1.79l.87,0v1.68a5.84,5.84,0,0,0-1-.11,2.55,2.55,0,0,0-2.72,2.52v6.81h-1.65Z"/><path d="M654.44,381.89a1.18,1.18,0,1,1,1.18,1.12A1.15,1.15,0,0,1,654.44,381.89Zm.34,2.91h1.65v10.76h-1.65Z"/><path d="M659.68,381.22h1.65v5.29h.14a3.27,3.27,0,0,1,3.11-1.85c2.72,0,4.59,2.16,4.59,5.55s-1.87,5.58-4.56,5.58a3.32,3.32,0,0,1-3.14-1.88h-.2v1.65h-1.59Zm4.7,13.08c2.08,0,3.14-1.82,3.14-4.12s-1-4-3.14-4-3.08,1.62-3.08,4S662.39,394.3,664.38,394.3Z"/><path d="M678.47,384.8h1.65v10.76h-1.65v-1.82h-.11a3.37,3.37,0,0,1-3.2,2c-2,0-3.47-1.32-3.47-4.06V384.8h1.65v6.73a2.34,2.34,0,0,0,2.36,2.57,2.79,2.79,0,0,0,2.77-2.94Z"/><path d="M687.82,386.2h-2.3v6.28c0,1.4.7,1.62,1.43,1.62a3.11,3.11,0,0,0,.73-.08l.34,1.49a3.64,3.64,0,0,1-1.24.19,2.75,2.75,0,0,1-2.91-2.77V386.2h-1.63v-1.4h1.63v-2.57h1.65v2.57h2.3Z"/><path d="M689.69,390.27c0-3.31,1.94-5.61,4.85-5.61,2.24,0,4.62,1.38,4.62,5.38v.7h-7.81c.08,2.31,1.42,3.56,3.36,3.56a2.64,2.64,0,0,0,2.69-1.68l1.59.45a4.18,4.18,0,0,1-4.28,2.72C691.6,395.79,689.69,393.57,689.69,390.27Zm7.79-1a2.91,2.91,0,0,0-2.94-3.16,3.21,3.21,0,0,0-3.19,3.16Z"/><path d="M701.17,390.21c0-3.39,1.88-5.55,4.6-5.55a3.29,3.29,0,0,1,3.11,1.85H709v-5.29h1.65v14.34h-1.6v-1.65h-.19a3.34,3.34,0,0,1-3.14,1.88C703.05,395.79,701.17,393.63,701.17,390.21Zm7.87,0c0-2.41-1.06-4-3.08-4s-3.13,1.76-3.13,4,1.06,4.12,3.13,4.12S709,392.62,709,390.18Z"/><path d="M718.9,381.22h10.75v1.54h-4.51v12.8h-1.73v-12.8H718.9Z"/><path d="M731,384.8h1.6v1.63h.11a2.91,2.91,0,0,1,2.8-1.79l.87,0v1.68a5.84,5.84,0,0,0-1-.11,2.54,2.54,0,0,0-2.71,2.52v6.81H731Z"/><path d="M737.82,392.51c0-2.47,2.18-2.91,4.18-3.17s2.77-.18,2.77-1v-.05a2,2,0,0,0-2.27-2.19,2.92,2.92,0,0,0-2.8,1.62l-1.57-.56a4.37,4.37,0,0,1,4.32-2.52c1.37,0,4,.4,4,3.81v7.09h-1.65V394.1h-.08a3.39,3.39,0,0,1-3.2,1.71C739.45,395.81,737.82,394.61,737.82,392.51Zm6.95-.84v-1.52c-.28.34-2.16.54-2.86.62-1.28.17-2.43.56-2.43,1.82s.95,1.74,2.27,1.74A2.76,2.76,0,0,0,744.77,391.67Z"/><path d="M748.94,390.24c0-3.28,1.93-5.58,4.85-5.58A4,4,0,0,1,758,388h-1.65a2.51,2.51,0,0,0-2.58-1.88c-1.93,0-3.22,1.59-3.22,4s1.26,4.12,3.22,4.12a2.51,2.51,0,0,0,2.58-1.88H758a4,4,0,0,1-4.23,3.37C750.79,395.79,748.94,393.46,748.94,390.24Z"/><path d="M760.11,381.89a1.18,1.18,0,1,1,1.18,1.12A1.15,1.15,0,0,1,760.11,381.89Zm.34,2.91h1.65v10.76h-1.65Z"/><path d="M766.78,395.56h-1.66V384.8h1.6v1.68h.14a3.17,3.17,0,0,1,3.14-1.82c2.18,0,3.64,1.32,3.64,4.07v6.83H772v-6.72a2.38,2.38,0,0,0-2.47-2.69,2.66,2.66,0,0,0-2.74,2.94Z"/><path d="M776.6,397.66l1.32-.92a3.38,3.38,0,0,0,3.08,1.62c1.74,0,3-.81,3-2.6v-2.19h-.14a3.28,3.28,0,0,1-3.14,1.82c-2.6,0-4.56-1.9-4.56-5.26s1.87-5.47,4.59-5.47a3.34,3.34,0,0,1,3.14,1.85h.17V384.8h1.59v11.07c0,2.77-2.07,3.95-4.65,3.95A4.75,4.75,0,0,1,776.6,397.66ZM784,390.1c0-2.33-1.07-4-3.08-4s-3.14,1.76-3.14,4,1.06,3.81,3.14,3.81S784,392.48,784,390.1Z"/><path d="M598,438.18V423.84h4.62c4.17,0,6.64,2.69,6.64,7.14s-2.47,7.2-6.84,7.2Zm4.31-1.54c3.56,0,5.27-2.16,5.27-5.66s-1.71-5.6-5.07-5.6h-2.78v11.26Z"/><path d="M611.39,432.89c0-3.31,1.93-5.61,4.84-5.61,2.24,0,4.63,1.38,4.63,5.38v.7h-7.81c.07,2.31,1.41,3.56,3.35,3.56a2.63,2.63,0,0,0,2.69-1.68l1.6.45a4.2,4.2,0,0,1-4.29,2.72C613.29,438.41,611.39,436.19,611.39,432.89Zm7.78-1a2.91,2.91,0,0,0-2.94-3.16,3.2,3.2,0,0,0-3.18,3.16Z"/><path d="M623.37,427.42H625v1.71h.19a3.29,3.29,0,0,1,3.11-1.85c2.72,0,4.6,2.16,4.6,5.55s-1.88,5.58-4.57,5.58a3.34,3.34,0,0,1-3.14-1.88H625v5.69h-1.65Zm4.71,9.5c2.07,0,3.13-1.82,3.13-4.12s-1-4-3.13-4-3.09,1.62-3.09,4S626.09,436.92,628.08,436.92Z"/><path d="M634.88,432.89c0-3.31,1.93-5.61,4.84-5.61,2.25,0,4.63,1.38,4.63,5.38v.7h-7.81c.07,2.31,1.41,3.56,3.35,3.56a2.63,2.63,0,0,0,2.69-1.68l1.6.45a4.2,4.2,0,0,1-4.29,2.72C636.78,438.41,634.88,436.19,634.88,432.89Zm7.79-1a2.91,2.91,0,0,0-2.95-3.16,3.2,3.2,0,0,0-3.18,3.16Z"/><path d="M648.51,438.18h-1.65V427.42h1.6v1.68h.14a3.17,3.17,0,0,1,3.14-1.82c2.17,0,3.64,1.32,3.64,4.07v6.83h-1.65v-6.72a2.38,2.38,0,0,0-2.47-2.69,2.67,2.67,0,0,0-2.75,2.94Z"/><path d="M657.89,432.83c0-3.39,1.88-5.55,4.6-5.55a3.29,3.29,0,0,1,3.11,1.85h.14v-5.29h1.65v14.34h-1.6v-1.65h-.19a3.34,3.34,0,0,1-3.14,1.88C659.77,438.41,657.89,436.25,657.89,432.83Zm7.87,0c0-2.41-1.06-4-3.08-4s-3.14,1.76-3.14,4,1.07,4.12,3.14,4.12S665.76,435.24,665.76,432.8Z"/><path d="M670.13,432.89c0-3.31,1.93-5.61,4.85-5.61,2.24,0,4.62,1.38,4.62,5.38v.7h-7.81c.08,2.31,1.41,3.56,3.35,3.56a2.63,2.63,0,0,0,2.69-1.68l1.6.45a4.19,4.19,0,0,1-4.29,2.72C672,438.41,670.13,436.19,670.13,432.89Zm7.79-1a2.91,2.91,0,0,0-2.94-3.16,3.21,3.21,0,0,0-3.19,3.16Z"/><path d="M683.77,438.18h-1.66V427.42h1.6v1.68h.14a3.17,3.17,0,0,1,3.14-1.82c2.17,0,3.64,1.32,3.64,4.07v6.83H689v-6.72a2.38,2.38,0,0,0-2.47-2.69,2.66,2.66,0,0,0-2.74,2.94Z"/><path d="M693.14,432.86c0-3.28,1.94-5.58,4.85-5.58a4,4,0,0,1,4.26,3.37H700.6a2.53,2.53,0,0,0-2.58-1.88c-1.94,0-3.22,1.59-3.22,4s1.26,4.12,3.22,4.12A2.51,2.51,0,0,0,700.6,435h1.65a4,4,0,0,1-4.23,3.37C695,438.41,693.14,436.08,693.14,432.86Z"/><path d="M704.51,442l.42-1.46c1.21.31,2,.16,2.55-1.45l.31-.84-4-10.82h1.79l3,8.58h.12l3-8.58,1.8,0-4.58,12.3a3.22,3.22,0,0,1-3.16,2.44A3.15,3.15,0,0,1,704.51,442Z"/><path d="M723.48,423.84l4.88,11.9h.17l4.87-11.9h2.07v14.34h-1.62v-10.9h-.14l-4.48,10.9h-1.57l-4.49-10.9H723v10.9h-1.62V423.84Z"/><path d="M738.21,435.13c0-2.47,2.18-2.91,4.17-3.17s2.78-.18,2.78-1v-.05a2,2,0,0,0-2.27-2.19,2.9,2.9,0,0,0-2.8,1.62l-1.57-.56a4.37,4.37,0,0,1,4.31-2.52c1.37,0,4,.4,4,3.81v7.09h-1.65v-1.46h-.09a3.35,3.35,0,0,1-3.19,1.71C739.83,438.43,738.21,437.23,738.21,435.13Zm6.95-.84v-1.52c-.28.34-2.16.54-2.86.62-1.29.17-2.44.56-2.44,1.82s.95,1.74,2.27,1.74A2.77,2.77,0,0,0,745.16,434.29Z"/><path d="M749.83,427.42h1.59v1.71h.2a3.29,3.29,0,0,1,3.11-1.85c2.72,0,4.6,2.16,4.6,5.55s-1.88,5.58-4.57,5.58a3.34,3.34,0,0,1-3.14-1.88h-.14v5.69h-1.65Zm4.7,9.5c2.08,0,3.14-1.82,3.14-4.12s-1-4-3.14-4-3.08,1.62-3.08,4S752.55,436.92,754.53,436.92Z"/><path d="M761.84,427.42h1.6v1.71h.19a3.29,3.29,0,0,1,3.11-1.85c2.72,0,4.6,2.16,4.6,5.55s-1.88,5.58-4.57,5.58a3.34,3.34,0,0,1-3.14-1.88h-.14v5.69h-1.65Zm4.71,9.5c2.07,0,3.13-1.82,3.13-4.12s-1-4-3.13-4-3.09,1.62-3.09,4S764.56,436.92,766.55,436.92Z"/><path d="M773.52,424.51a1.18,1.18,0,1,1,1.17,1.12A1.15,1.15,0,0,1,773.52,424.51Zm.33,2.91h1.65v10.76h-1.65Z"/><path d="M780.18,438.18h-1.65V427.42h1.59v1.68h.14a3.19,3.19,0,0,1,3.14-1.82c2.18,0,3.64,1.32,3.64,4.07v6.83h-1.65v-6.72a2.37,2.37,0,0,0-2.46-2.69,2.66,2.66,0,0,0-2.75,2.94Z"/><path d="M790,440.28l1.31-.92a3.4,3.4,0,0,0,3.09,1.62c1.73,0,3-.81,3-2.6v-2.19h-.14a3.25,3.25,0,0,1-3.13,1.82c-2.61,0-4.57-1.9-4.57-5.26s1.88-5.47,4.59-5.47a3.33,3.33,0,0,1,3.14,1.85h.17v-1.71h1.6v11.07c0,2.77-2.08,3.95-4.65,3.95A4.73,4.73,0,0,1,790,440.28Zm7.42-7.56c0-2.33-1.06-4-3.08-4s-3.14,1.76-3.14,4,1.07,3.81,3.14,3.81S797.43,435.1,797.43,432.72Z"/><path d="M954.41,298.68v9.5c0,2.94-2.19,5.1-5.57,5.1s-5.57-2.16-5.57-5.1v-9.5H945V308a3.85,3.85,0,0,0,7.68,0v-9.36Z"/><path d="M957.66,302.27h1.59V304h.2a3.27,3.27,0,0,1,3.11-1.85c2.72,0,4.59,2.15,4.59,5.54s-1.87,5.58-4.56,5.58a3.32,3.32,0,0,1-3.14-1.88h-.14v5.69h-1.65Zm4.7,9.49c2.08,0,3.14-1.82,3.14-4.11s-1-4-3.14-4-3.08,1.63-3.08,4S960.37,311.76,962.36,311.76Z"/><path d="M974.35,303.67h-2.3v6.27c0,1.4.7,1.63,1.43,1.63a3,3,0,0,0,.73-.09l.33,1.49a3.52,3.52,0,0,1-1.23.19,2.74,2.74,0,0,1-2.91-2.77v-6.72h-1.63v-1.4h1.63v-2.58h1.65v2.58h2.3Z"/><path d="M976.5,299.35a1.18,1.18,0,1,1,1.18,1.12A1.16,1.16,0,0,1,976.5,299.35Zm.34,2.92h1.65V313h-1.65Z"/><path d="M981.51,302.27h1.6V304h.14a2.89,2.89,0,0,1,2.88-1.82A3,3,0,0,1,989,304h.11a3.39,3.39,0,0,1,3.22-1.82c1.92,0,3.28,1.17,3.28,3.69V313H994v-7.2a2,2,0,0,0-2.19-2.21,2.25,2.25,0,0,0-2.38,2.41v7h-1.68v-7.36a2,2,0,0,0-2.13-2.05,2.56,2.56,0,0,0-2.44,2.69V313h-1.65Z"/><path d="M998.14,307.73c0-3.31,1.94-5.6,4.85-5.6,2.24,0,4.62,1.37,4.62,5.38v.7H999.8c.08,2.3,1.42,3.55,3.36,3.55a2.64,2.64,0,0,0,2.69-1.68l1.59.45a4.17,4.17,0,0,1-4.28,2.72C1000.05,313.25,998.14,311,998.14,307.73Zm7.79-1a2.92,2.92,0,0,0-2.94-3.17,3.21,3.21,0,0,0-3.19,3.17Z"/><path d="M931.13,341.3H936c3.37,0,4.88,1.86,4.88,4.4a3.91,3.91,0,0,1-2.68,4l3.24,5.92h-2l-3-5.61h-3.51v5.6h-1.73Zm4.82,7.17c2.29,0,3.19-1.05,3.19-2.77s-.9-2.86-3.22-2.86h-3.06v5.63Z"/><path d="M942.89,350.35c0-3.31,1.93-5.6,4.84-5.6,2.25,0,4.63,1.37,4.63,5.38v.7h-7.81c.07,2.3,1.41,3.55,3.35,3.55a2.63,2.63,0,0,0,2.69-1.68l1.6.45a4.19,4.19,0,0,1-4.29,2.72C944.79,355.87,942.89,353.66,942.89,350.35Zm7.79-1a2.92,2.92,0,0,0-2.95-3.17,3.21,3.21,0,0,0-3.18,3.17Z"/><path d="M961,347.72a2.27,2.27,0,0,0-2.33-1.54c-1.32,0-2.3.67-2.3,1.59s.58,1.26,1.85,1.57l1.6.39c1.92.47,2.86,1.42,2.86,2.92,0,1.85-1.7,3.22-4.2,3.22-2.2,0-3.71-1-4.1-2.8l1.57-.39a2.28,2.28,0,0,0,2.5,1.73c1.54,0,2.52-.75,2.52-1.68,0-.74-.51-1.26-1.6-1.51l-1.79-.42c-2-.46-2.86-1.46-2.86-2.94,0-1.82,1.68-3.11,3.95-3.11a3.62,3.62,0,0,1,3.81,2.55Z"/><path d="M965.17,344.89h1.6v1.71h.2a3.27,3.27,0,0,1,3.11-1.85c2.71,0,4.59,2.15,4.59,5.54s-1.88,5.58-4.56,5.58A3.32,3.32,0,0,1,967,354h-.14v5.69h-1.66Zm4.71,9.49c2.07,0,3.14-1.82,3.14-4.11s-1-4-3.14-4-3.08,1.63-3.08,4S967.89,354.38,969.88,354.38Z"/><path d="M976.68,350.32c0-3.36,2-5.57,4.88-5.57s4.87,2.21,4.87,5.57-2,5.55-4.87,5.55S976.68,353.66,976.68,350.32Zm8.1,0c0-2.16-1-4.09-3.22-4.09s-3.23,1.93-3.23,4.09,1,4.06,3.23,4.06S984.78,352.48,984.78,350.32Z"/><path d="M990.6,355.64H989V344.89h1.59v1.68h.14a3.19,3.19,0,0,1,3.14-1.82c2.18,0,3.64,1.31,3.64,4.06v6.83h-1.65v-6.72a2.38,2.38,0,0,0-2.47-2.69,2.67,2.67,0,0,0-2.74,2.94Z"/><path d="M1006.62,347.72a2.27,2.27,0,0,0-2.33-1.54c-1.32,0-2.3.67-2.3,1.59s.58,1.26,1.85,1.57l1.6.39c1.92.47,2.86,1.42,2.86,2.92,0,1.85-1.7,3.22-4.2,3.22-2.2,0-3.71-1-4.1-2.8l1.57-.39a2.28,2.28,0,0,0,2.5,1.73c1.54,0,2.52-.75,2.52-1.68,0-.74-.51-1.26-1.6-1.51l-1.79-.42c-2-.46-2.86-1.46-2.86-2.94,0-1.82,1.68-3.11,3.95-3.11a3.62,3.62,0,0,1,3.81,2.55Z"/><path d="M1010.28,350.35c0-3.31,1.93-5.6,4.85-5.6,2.24,0,4.62,1.37,4.62,5.38v.7h-7.81c.08,2.3,1.42,3.55,3.36,3.55a2.64,2.64,0,0,0,2.69-1.68l1.59.45a4.17,4.17,0,0,1-4.28,2.72C1012.19,355.87,1010.28,353.66,1010.28,350.35Zm7.79-1a2.92,2.92,0,0,0-2.94-3.17,3.21,3.21,0,0,0-3.19,3.17Z"/><path d="M929.76,388.4a3.9,3.9,0,0,0-4-3c-2.61,0-4.65,2-4.65,5.74s2,5.75,4.65,5.75a3.91,3.91,0,0,0,4-3.06h1.74a5.59,5.59,0,0,1-5.77,4.68c-3.67,0-6.33-2.83-6.33-7.37s2.66-7.37,6.33-7.37a5.59,5.59,0,0,1,5.77,4.68Z"/><path d="M933.56,392.94c0-3.36,2-5.57,4.88-5.57s4.87,2.21,4.87,5.57-2,5.55-4.87,5.55S933.56,396.28,933.56,392.94Zm8.1,0c0-2.16-1-4.09-3.22-4.09s-3.22,1.93-3.22,4.09,1,4.06,3.22,4.06S941.66,395.1,941.66,392.94Z"/><path d="M945.83,387.51h1.59v1.62h.12a2.93,2.93,0,0,1,2.8-1.79c.24,0,.68,0,.87,0v1.68a5.06,5.06,0,0,0-1-.11,2.54,2.54,0,0,0-2.72,2.52v6.8h-1.65Z"/><path d="M953.16,387.51h1.6v1.62h.11a2.93,2.93,0,0,1,2.8-1.79c.25,0,.68,0,.87,0v1.68a5,5,0,0,0-1-.11,2.53,2.53,0,0,0-2.71,2.52v6.8h-1.66Z"/><path d="M959.66,393c0-3.31,1.93-5.6,4.85-5.6,2.24,0,4.62,1.37,4.62,5.38v.7h-7.81c.08,2.3,1.41,3.55,3.35,3.55a2.63,2.63,0,0,0,2.69-1.68l1.6.45a4.18,4.18,0,0,1-4.29,2.72C961.56,398.49,959.66,396.28,959.66,393Zm7.79-1a2.92,2.92,0,0,0-2.94-3.17,3.21,3.21,0,0,0-3.19,3.17Z"/><path d="M971.14,392.94c0-3.28,1.93-5.57,4.85-5.57a4,4,0,0,1,4.25,3.36h-1.65a2.52,2.52,0,0,0-2.58-1.88c-1.93,0-3.22,1.6-3.22,4S974.05,397,976,397a2.51,2.51,0,0,0,2.58-1.87h1.65a4,4,0,0,1-4.23,3.36C973,398.49,971.14,396.16,971.14,392.94Z"/><path d="M987.33,388.91H985v6.27c0,1.4.7,1.63,1.43,1.63a2.94,2.94,0,0,0,.72-.09l.34,1.49a3.52,3.52,0,0,1-1.23.19,2.75,2.75,0,0,1-2.92-2.77v-6.72h-1.62v-1.4h1.62v-2.58H985v2.58h2.3Z"/><path d="M991.47,398.26h-1.66V387.51h1.6v1.68h.14a3.16,3.16,0,0,1,3.14-1.82c2.18,0,3.64,1.31,3.64,4.06v6.83h-1.65v-6.72a2.38,2.38,0,0,0-2.47-2.69,2.67,2.67,0,0,0-2.74,2.94Z"/><path d="M1000.85,393c0-3.31,1.93-5.6,4.84-5.6,2.24,0,4.62,1.37,4.62,5.38v.7h-7.81c.08,2.3,1.42,3.55,3.36,3.55a2.63,2.63,0,0,0,2.69-1.68l1.6.45a4.19,4.19,0,0,1-4.29,2.72C1002.75,398.49,1000.85,396.28,1000.85,393Zm7.78-1a2.92,2.92,0,0,0-2.94-3.17,3.22,3.22,0,0,0-3.19,3.17Z"/><path d="M1019,390.34a2.24,2.24,0,0,0-2.32-1.54c-1.32,0-2.3.67-2.3,1.59s.58,1.26,1.85,1.57l1.6.39c1.92.47,2.86,1.42,2.86,2.92,0,1.85-1.71,3.22-4.21,3.22-2.2,0-3.7-1-4.09-2.8l1.57-.4a2.27,2.27,0,0,0,2.49,1.74c1.55,0,2.53-.75,2.53-1.68,0-.74-.52-1.26-1.6-1.51l-1.79-.42c-2-.46-2.86-1.46-2.86-2.94,0-1.83,1.68-3.11,3.95-3.11a3.62,3.62,0,0,1,3.81,2.55Z"/><path d="M1029.27,390.34a2.26,2.26,0,0,0-2.33-1.54c-1.31,0-2.29.67-2.29,1.59s.57,1.26,1.84,1.57l1.6.39c1.92.47,2.86,1.42,2.86,2.92,0,1.85-1.7,3.22-4.2,3.22-2.2,0-3.71-1-4.09-2.8l1.57-.4a2.26,2.26,0,0,0,2.49,1.74c1.54,0,2.52-.75,2.52-1.68,0-.74-.51-1.26-1.6-1.51l-1.79-.42c-2-.46-2.86-1.46-2.86-2.94,0-1.83,1.68-3.11,4-3.11a3.62,3.62,0,0,1,3.81,2.55Z"/><path d="M889.15,431a3.9,3.9,0,0,0-4-3c-2.6,0-4.65,2-4.65,5.74s2,5.75,4.65,5.75a3.91,3.91,0,0,0,4-3.06h1.74a5.6,5.6,0,0,1-5.78,4.68c-3.67,0-6.33-2.83-6.33-7.37s2.66-7.37,6.33-7.37a5.6,5.6,0,0,1,5.78,4.68Z"/><path d="M893,435.59c0-3.31,1.93-5.6,4.85-5.6,2.24,0,4.62,1.37,4.62,5.38v.7h-7.81c.08,2.3,1.42,3.55,3.36,3.55a2.64,2.64,0,0,0,2.69-1.68l1.59.45a4.17,4.17,0,0,1-4.28,2.72C894.86,441.11,893,438.9,893,435.59Zm7.79-.95a2.92,2.92,0,0,0-2.94-3.17,3.21,3.21,0,0,0-3.19,3.17Z"/><path d="M904.93,430.13h1.6v1.62h.11a3,3,0,0,1,2.81-1.79c.24,0,.67,0,.86,0v1.68a4.86,4.86,0,0,0-1-.11,2.54,2.54,0,0,0-2.71,2.52v6.8h-1.66Z"/><path d="M917.62,431.53h-2.3v6.27c0,1.4.7,1.63,1.43,1.63a3,3,0,0,0,.73-.09l.34,1.49a3.64,3.64,0,0,1-1.24.19,2.74,2.74,0,0,1-2.91-2.77v-6.72h-1.62v-1.4h1.62v-2.58h1.65v2.58h2.3Z"/><path d="M919.77,427.21a1.18,1.18,0,0,1,2.36,0,1.18,1.18,0,0,1-2.36,0Zm.34,2.92h1.65v10.75h-1.65Z"/><path d="M929.58,431.53h-2.41v9.35h-1.66v-9.35h-1.73v-1.4h1.73v-1.49a2.79,2.79,0,0,1,3-2.77,3.89,3.89,0,0,1,1.57.28l-.48,1.43a2.46,2.46,0,0,0-.92-.17c-1.09,0-1.54.56-1.54,1.62v1.1h2.41Z"/><path d="M931.56,427.21a1.18,1.18,0,1,1,1.18,1.12A1.16,1.16,0,0,1,931.56,427.21Zm.34,2.92h1.65v10.75H931.9Z"/><path d="M936.07,435.56c0-3.28,1.93-5.57,4.85-5.57a4,4,0,0,1,4.25,3.36h-1.65a2.52,2.52,0,0,0-2.58-1.88c-1.93,0-3.22,1.6-3.22,4s1.26,4.11,3.22,4.11a2.51,2.51,0,0,0,2.58-1.87h1.65a4,4,0,0,1-4.23,3.36C937.92,441.11,936.07,438.78,936.07,435.56Z"/><path d="M947.07,437.83c0-2.46,2.18-2.91,4.18-3.16s2.77-.19,2.77-1v-.05a2,2,0,0,0-2.27-2.19,2.9,2.9,0,0,0-2.8,1.63l-1.57-.56A4.37,4.37,0,0,1,951.7,430c1.37,0,4,.39,4,3.81v7.08H954v-1.45h-.08a3.39,3.39,0,0,1-3.2,1.71C948.7,441.14,947.07,439.93,947.07,437.83ZM954,437v-1.51c-.28.33-2.16.53-2.86.61-1.29.17-2.43.56-2.43,1.82s.95,1.74,2.26,1.74A2.76,2.76,0,0,0,954,437Z"/><path d="M963.37,431.53h-2.29v6.27c0,1.4.7,1.63,1.42,1.63a3,3,0,0,0,.73-.09l.34,1.49a3.64,3.64,0,0,1-1.24.19,2.74,2.74,0,0,1-2.91-2.77v-6.72H957.8v-1.4h1.62v-2.58h1.66v2.58h2.29Z"/><path d="M965.24,435.59c0-3.31,1.94-5.6,4.85-5.6,2.24,0,4.62,1.37,4.62,5.38v.7H966.9c.08,2.3,1.42,3.55,3.36,3.55a2.63,2.63,0,0,0,2.69-1.68l1.6.45a4.19,4.19,0,0,1-4.29,2.72C967.15,441.11,965.24,438.9,965.24,435.59Zm7.79-.95a2.92,2.92,0,0,0-2.94-3.17,3.22,3.22,0,0,0-3.19,3.17Z"/><path d="M987.84,438.62H988l4.26-12.08h1.82l-5.27,14.34H987l-5.27-14.34h1.82Z"/><path d="M994.59,437.83c0-2.46,2.18-2.91,4.17-3.16s2.77-.19,2.77-1v-.05a2,2,0,0,0-2.26-2.19,2.92,2.92,0,0,0-2.81,1.63l-1.56-.56a4.36,4.36,0,0,1,4.31-2.52c1.37,0,4,.39,4,3.81v7.08h-1.66v-1.45h-.08a3.37,3.37,0,0,1-3.19,1.71C996.21,441.14,994.59,439.93,994.59,437.83Zm6.94-.84v-1.51c-.28.33-2.15.53-2.85.61-1.29.17-2.44.56-2.44,1.82s1,1.74,2.27,1.74A2.75,2.75,0,0,0,1001.53,437Z"/><path d="M1007.86,440.88h-1.65V426.54h1.65Z"/><path d="M1010.55,427.21a1.18,1.18,0,1,1,1.17,1.12A1.16,1.16,0,0,1,1010.55,427.21Zm.33,2.92h1.66v10.75h-1.66Z"/><path d="M1015.06,435.53c0-3.39,1.87-5.54,4.59-5.54a3.27,3.27,0,0,1,3.11,1.85h.14v-5.3h1.65v14.34H1023v-1.65h-.2a3.32,3.32,0,0,1-3.14,1.88C1016.93,441.11,1015.06,439,1015.06,435.53Zm7.87,0c0-2.41-1.07-4-3.08-4s-3.14,1.77-3.14,4,1.06,4.11,3.14,4.11S1022.93,437.94,1022.93,435.51Z"/><path d="M1027.29,437.83c0-2.46,2.18-2.91,4.17-3.16s2.78-.19,2.78-1v-.05a2,2,0,0,0-2.27-2.19,2.89,2.89,0,0,0-2.8,1.63l-1.57-.56a4.37,4.37,0,0,1,4.31-2.52c1.38,0,4,.39,4,3.81v7.08h-1.65v-1.45h-.09a3.36,3.36,0,0,1-3.19,1.71C1028.92,441.14,1027.29,439.93,1027.29,437.83Zm7-.84v-1.51c-.28.33-2.16.53-2.86.61-1.29.17-2.44.56-2.44,1.82s1,1.74,2.27,1.74A2.76,2.76,0,0,0,1034.24,437Z"/><path d="M1043.59,431.53h-2.3v6.27c0,1.4.7,1.63,1.43,1.63a3,3,0,0,0,.73-.09l.34,1.49a3.64,3.64,0,0,1-1.24.19,2.74,2.74,0,0,1-2.91-2.77v-6.72H1038v-1.4h1.63v-2.58h1.65v2.58h2.3Z"/><path d="M1045.74,427.21a1.18,1.18,0,1,1,1.18,1.12A1.16,1.16,0,0,1,1045.74,427.21Zm.34,2.92h1.65v10.75h-1.65Z"/><path d="M1050.25,435.56c0-3.36,2-5.57,4.87-5.57s4.88,2.21,4.88,5.57-2,5.55-4.88,5.55S1050.25,438.9,1050.25,435.56Zm8.1,0c0-2.16-1-4.09-3.23-4.09s-3.22,1.93-3.22,4.09,1,4.06,3.22,4.06S1058.35,437.72,1058.35,435.56Z"/><path d="M1064.17,440.88h-1.66V430.13h1.6v1.68h.14a3.18,3.18,0,0,1,3.14-1.82c2.18,0,3.64,1.31,3.64,4.06v6.83h-1.65v-6.72a2.38,2.38,0,0,0-2.47-2.69,2.67,2.67,0,0,0-2.74,2.94Z"/><path class="cls-14" d="M380.85,98.26c-7.15-2.44-11.3-9.86-11.47-10.17A24,24,0,1,1,402,97.39l-1-1.75a22,22,0,1,0-29.9-8.52c0,.07,4,7.06,10.36,9.25Z"/><path class="cls-15" d="M390.45,73.32a5.11,5.11,0,1,1,5.11-5.11A5.11,5.11,0,0,1,390.45,73.32Zm0-8.21a3.11,3.11,0,1,0,3.11,3.1A3.11,3.11,0,0,0,390.45,65.11Z"/><path class="cls-16" d="M400.67,86.43h-2V84.7c0-7.46-5.82-8.26-8.33-8.26s-8.33.8-8.33,8.26v1.73h-2V84.7c0-6.33,4-10.26,10.33-10.26s10.33,3.93,10.33,10.26Z"/><path class="cls-14" d="M450.42,98.26c-7.15-2.44-11.29-9.86-11.47-10.17a24,24,0,1,1,32.63,9.3l-1-1.75a22,22,0,1,0-29.91-8.52c.05.07,4,7.06,10.37,9.25Z"/><path class="cls-15" d="M460,73.32a5.11,5.11,0,1,1,5.1-5.11A5.11,5.11,0,0,1,460,73.32Zm0-8.21a3.11,3.11,0,1,0,3.1,3.1A3.1,3.1,0,0,0,460,65.11Z"/><path class="cls-16" d="M470.25,86.43h-2V84.7c0-7.46-5.83-8.26-8.33-8.26s-8.33.8-8.33,8.26v1.73h-2V84.7c0-6.33,4-10.26,10.33-10.26s10.33,3.93,10.33,10.26Z"/><path class="cls-14" d="M520,98.26c-7.15-2.44-11.3-9.86-11.47-10.17a24,24,0,1,1,32.63,9.3l-1-1.75a22,22,0,1,0-29.9-8.52c0,.07,4,7.06,10.36,9.25Z"/><path class="cls-15" d="M529.6,73.32a5.11,5.11,0,1,1,5.11-5.11A5.11,5.11,0,0,1,529.6,73.32Zm0-8.21a3.11,3.11,0,1,0,3.11,3.1A3.1,3.1,0,0,0,529.6,65.11Z"/><path class="cls-16" d="M539.83,86.43h-2V84.7c0-7.46-5.83-8.26-8.33-8.26s-8.33.8-8.33,8.26v1.73h-2V84.7c0-6.33,4-10.26,10.33-10.26s10.33,3.93,10.33,10.26Z"/><path class="cls-14" d="M589.57,98.26c-7.15-2.44-11.29-9.86-11.46-10.17a24,24,0,1,1,32.62,9.3l-1-1.75a22,22,0,1,0-29.9-8.52c0,.07,3.95,7.06,10.36,9.25Z"/><path class="cls-15" d="M599.18,73.32a5.11,5.11,0,1,1,5.1-5.11A5.11,5.11,0,0,1,599.18,73.32Zm0-8.21a3.11,3.11,0,1,0,3.1,3.1A3.11,3.11,0,0,0,599.18,65.11Z"/><path class="cls-16" d="M609.4,86.43h-2V84.7c0-7.46-5.82-8.26-8.33-8.26s-8.33.8-8.33,8.26v1.73h-2V84.7c0-6.33,4-10.26,10.33-10.26S609.4,78.37,609.4,84.7Z"/><path class="cls-14" d="M659.15,98.26c-7.15-2.44-11.29-9.86-11.47-10.17a24,24,0,1,1,32.63,9.3l-1-1.75a22,22,0,1,0-29.91-8.52c0,.07,4,7.06,10.37,9.25Z"/><path class="cls-15" d="M668.75,73.32a5.11,5.11,0,1,1,5.11-5.11A5.11,5.11,0,0,1,668.75,73.32Zm0-8.21a3.11,3.11,0,1,0,3.11,3.1A3.1,3.1,0,0,0,668.75,65.11Z"/><path class="cls-16" d="M679,86.43h-2V84.7c0-7.46-5.83-8.26-8.33-8.26s-8.33.8-8.33,8.26v1.73h-2V84.7c0-6.33,4-10.26,10.33-10.26S679,78.37,679,84.7Z"/><path class="cls-14" d="M728.73,98.26c-7.15-2.44-11.3-9.86-11.47-10.17a24,24,0,1,1,32.62,9.3l-1-1.75A22,22,0,1,0,719,87.12c0,.07,4,7.06,10.36,9.25Z"/><path class="cls-15" d="M738.33,73.32a5.11,5.11,0,1,1,5.11-5.11A5.11,5.11,0,0,1,738.33,73.32Zm0-8.21a3.11,3.11,0,1,0,3.11,3.1A3.1,3.1,0,0,0,738.33,65.11Z"/><path class="cls-16" d="M748.55,86.43h-2V84.7c0-7.46-5.82-8.26-8.33-8.26s-8.33.8-8.33,8.26v1.73h-2V84.7c0-6.33,4-10.26,10.33-10.26s10.33,3.93,10.33,10.26Z"/><path class="cls-14" d="M1109.69,249.69H10.65A10.34,10.34,0,0,1,.32,239.36v-109A10.34,10.34,0,0,1,10.65,120h1099A10.34,10.34,0,0,1,1120,130.32v109A10.35,10.35,0,0,1,1109.69,249.69ZM10.65,123a7.33,7.33,0,0,0-7.33,7.33v109a7.34,7.34,0,0,0,7.33,7.33h1099a7.34,7.34,0,0,0,7.33-7.33v-109a7.33,7.33,0,0,0-7.33-7.33Z"/><path class="cls-15" d="M263.14,230.42H28.93a9.66,9.66,0,0,1-9.65-9.65V148.9a9.66,9.66,0,0,1,9.65-9.65H263.14a9.66,9.66,0,0,1,9.65,9.65v71.87A9.66,9.66,0,0,1,263.14,230.42ZM28.93,141.72a7.19,7.19,0,0,0-7.18,7.18v71.87A7.2,7.2,0,0,0,28.93,228H263.14a7.2,7.2,0,0,0,7.19-7.19V148.9a7.2,7.2,0,0,0-7.19-7.18Z"/><path class="cls-15" d="M539.09,230.69H304.88a9.93,9.93,0,0,1-9.92-9.92V148.9a9.93,9.93,0,0,1,9.92-9.91H539.09A9.93,9.93,0,0,1,549,148.9v71.87A9.93,9.93,0,0,1,539.09,230.69ZM304.88,142A6.93,6.93,0,0,0,298,148.9v71.87a6.94,6.94,0,0,0,6.92,6.92H539.09a6.94,6.94,0,0,0,6.92-6.92V148.9a6.93,6.93,0,0,0-6.92-6.91Z"/><path class="cls-15" d="M1110.78,584.6H9.05a9.22,9.22,0,0,1-9.22-9.22V502.11a9.22,9.22,0,0,1,9.22-9.21H1110.78a9.22,9.22,0,0,1,9.21,9.21v73.27A9.22,9.22,0,0,1,1110.78,584.6ZM9.05,495.9a6.22,6.22,0,0,0-6.22,6.21v73.27a6.23,6.23,0,0,0,6.22,6.22H1110.78a6.22,6.22,0,0,0,6.21-6.22V502.11a6.22,6.22,0,0,0-6.21-6.21Z"/><path class="cls-15" d="M815,230.69H580.83a9.93,9.93,0,0,1-9.92-9.92V148.9a9.93,9.93,0,0,1,9.92-9.91H815A9.93,9.93,0,0,1,825,148.9v71.87A9.93,9.93,0,0,1,815,230.69ZM580.83,142a6.93,6.93,0,0,0-6.92,6.91v71.87a6.94,6.94,0,0,0,6.92,6.92H815a6.94,6.94,0,0,0,6.92-6.92V148.9A6.93,6.93,0,0,0,815,142Z"/><path class="cls-15" d="M1091,230.69H856.78a9.93,9.93,0,0,1-9.92-9.92V148.9a9.93,9.93,0,0,1,9.92-9.91H1091a9.93,9.93,0,0,1,9.92,9.91v71.87A9.93,9.93,0,0,1,1091,230.69ZM856.78,142a6.93,6.93,0,0,0-6.92,6.91v71.87a6.94,6.94,0,0,0,6.92,6.92H1091a6.93,6.93,0,0,0,6.92-6.92V148.9A6.92,6.92,0,0,0,1091,142Z"/><g id="Kibana"><g class="cls-17"><path class="cls-5" d="M593.66,535.4v20.76l14.76-17a30.76,30.76,0,0,0-14.76-3.76"/><path class="cls-13" d="M593.66,520.56V535.4a30.76,30.76,0,0,1,14.76,3.76l16.15-18.6Z"/><path class="cls-8" d="M611.57,541.12l-15.14,17.44-1.36,1.57H624a30.87,30.87,0,0,0-12.38-19"/></g></g><g id="Elasticsearch"><g class="cls-18"><path class="cls-12" d="M394.61,527.67h0a19.78,19.78,0,0,0-32.91,3.88h25.79a7.84,7.84,0,0,0,5.06-1.83,16,16,0,0,0,2.06-2.05"/><path class="cls-5" d="M359.64,540.34a19.66,19.66,0,0,0,.68,5.13h24.23a5.13,5.13,0,1,0,0-10.26H360.32a19.78,19.78,0,0,0-.68,5.13"/><path class="cls-8" d="M394.61,553h0a19.78,19.78,0,0,1-32.91-3.88h25.79a7.84,7.84,0,0,1,5.06,1.82,16.62,16.62,0,0,1,2.06,2"/></g></g><path d="M633.11,532.56h2.79v7.07h.18l6-7.07h3.41l-6,6.91,6,8.49H642.2l-4.6-6.6-1.7,2V548h-2.79Z"/><path d="M647.83,533.29a1.58,1.58,0,1,1,1.58,1.48A1.53,1.53,0,0,1,647.83,533.29Zm.21,3.12h2.72V548H648Z"/><path d="M653.68,532.56h2.72v5.76h.11a3.44,3.44,0,0,1,3.31-2.06c2.67,0,4.77,2.09,4.77,5.94s-2,6-4.77,6a3.5,3.5,0,0,1-3.31-2h-.15V548h-2.68Zm5.38,13.37c1.8,0,2.75-1.58,2.75-3.74s-.93-3.7-2.75-3.7-2.71,1.45-2.71,3.7S657.33,545.93,659.06,545.93Z"/><path d="M666.36,544.72c0-2.6,2.15-3.27,4.39-3.51,2-.22,2.86-.26,2.86-1v0c0-1.13-.7-1.78-2-1.78a2.31,2.31,0,0,0-2.37,1.47l-2.54-.36c.6-2.11,2.47-3.19,4.9-3.19,2.2,0,4.69.92,4.69,4V548h-2.62v-1.58h-.09a3.57,3.57,0,0,1-3.39,1.82C668,548.2,666.36,547,666.36,544.72Zm7.25-.9v-1.36a8.5,8.5,0,0,1-2.49.56c-1.22.17-2.13.61-2.13,1.66s.81,1.52,2,1.52A2.46,2.46,0,0,0,673.61,543.82Z"/><path d="M681.79,548h-2.72V536.41h2.6v2h.14a3.46,3.46,0,0,1,3.44-2.11c2.39,0,4,1.58,4,4.35V548h-2.72V541a2.18,2.18,0,0,0-2.25-2.47,2.37,2.37,0,0,0-2.45,2.63Z"/><path d="M691.44,544.72c0-2.6,2.14-3.27,4.39-3.51,2-.22,2.85-.26,2.85-1v0c0-1.13-.69-1.78-1.95-1.78a2.31,2.31,0,0,0-2.37,1.47l-2.54-.36c.6-2.11,2.46-3.19,4.89-3.19,2.21,0,4.7.92,4.7,4V548h-2.62v-1.58h-.09a3.57,3.57,0,0,1-3.39,1.82C693.1,548.2,691.44,547,691.44,544.72Zm7.25-.9v-1.36a8.5,8.5,0,0,1-2.5.56c-1.21.17-2.12.61-2.12,1.66s.81,1.52,1.94,1.52A2.47,2.47,0,0,0,698.69,543.82Z"/><path d="M562.83,541.17h-4v-2.36h4v-4h2.36v4h4v2.36h-4v4h-2.36Z"/><path d="M405.38,532.56h10v2.34h-7.23v4.18h6.71v2.34h-6.71v4.2h7.28V548H405.38Z"/><path d="M420.85,548h-2.72v-15.4h2.72Z"/><path d="M423.11,544.72c0-2.6,2.14-3.27,4.38-3.51,2-.22,2.86-.26,2.86-1v0c0-1.13-.69-1.78-2-1.78a2.3,2.3,0,0,0-2.37,1.47l-2.55-.36c.61-2.11,2.47-3.19,4.9-3.19,2.2,0,4.7.92,4.7,4V548h-2.62v-1.58h-.09a3.58,3.58,0,0,1-3.4,1.82C424.77,548.2,423.11,547,423.11,544.72Zm7.25-.9v-1.36a8.5,8.5,0,0,1-2.5.56c-1.22.17-2.13.61-2.13,1.66s.81,1.52,1.95,1.52A2.47,2.47,0,0,0,430.36,543.82Z"/><path d="M442.46,539.73a2,2,0,0,0-2.12-1.44c-1.14,0-2,.54-2,1.32s.46,1.08,1.64,1.34l2,.42c2.18.48,3.24,1.48,3.25,3.13,0,2.19-2.05,3.69-4.94,3.69s-4.62-1.26-5-3.38l2.66-.26a2.06,2.06,0,0,0,2.29,1.58c1.3,0,2.16-.59,2.16-1.38s-.5-1.08-1.56-1.32l-2-.41c-2.22-.46-3.26-1.57-3.25-3.26,0-2.13,1.89-3.5,4.67-3.5s4.27,1.25,4.65,3.2Z"/><path d="M453.21,538.51h-2.28v6c0,1.1.55,1.34,1.23,1.34a3.24,3.24,0,0,0,.8-.11l.46,2.13a5.31,5.31,0,0,1-1.6.27c-2.05.06-3.63-1-3.61-3.18v-6.43h-1.64v-2.1h1.64v-2.77h2.72v2.77h2.28Z"/><path d="M455.28,533.29a1.58,1.58,0,1,1,1.58,1.48A1.53,1.53,0,0,1,455.28,533.29Zm.21,3.12h2.72V548h-2.72Z"/><path d="M460.51,542.23c0-3.53,2.13-6,5.52-6,2.82,0,4.78,1.64,5,4.15h-2.6a2.26,2.26,0,0,0-2.32-2c-1.68,0-2.8,1.4-2.8,3.74s1.1,3.78,2.8,3.78a2.26,2.26,0,0,0,2.32-2H471c-.19,2.46-2,4.18-4.95,4.18C462.59,548.19,460.51,545.73,460.51,542.23Z"/><path d="M479.88,539.73a2,2,0,0,0-2.13-1.44c-1.13,0-2,.54-2,1.32s.46,1.08,1.63,1.34l2,.42c2.18.48,3.24,1.48,3.25,3.13,0,2.19-2,3.69-4.93,3.69s-4.62-1.26-5-3.38l2.65-.26a2.08,2.08,0,0,0,2.3,1.58c1.29,0,2.15-.59,2.15-1.38s-.5-1.08-1.56-1.32l-2-.41c-2.22-.46-3.26-1.57-3.25-3.26,0-2.13,1.89-3.5,4.67-3.5s4.28,1.25,4.65,3.2Z"/><path d="M484.36,542.25c0-3.56,2.16-6,5.47-6,2.84,0,5.28,1.78,5.28,5.83v.84h-8.05a2.85,2.85,0,0,0,2.95,3.14,2.41,2.41,0,0,0,2.44-1.49l2.55.28c-.48,2-2.34,3.33-5,3.33C486.49,548.19,484.36,545.88,484.36,542.25Zm8.14-1.16a2.57,2.57,0,0,0-2.63-2.71,2.77,2.77,0,0,0-2.8,2.71Z"/><path d="M496.86,544.72c0-2.6,2.15-3.27,4.39-3.51,2-.22,2.86-.26,2.86-1v0c0-1.13-.69-1.78-2-1.78a2.31,2.31,0,0,0-2.37,1.47l-2.54-.36c.6-2.11,2.47-3.19,4.9-3.19,2.2,0,4.69.92,4.69,4V548h-2.62v-1.58h-.09a3.56,3.56,0,0,1-3.39,1.82C498.53,548.2,496.86,547,496.86,544.72Zm7.26-.9v-1.36a8.66,8.66,0,0,1-2.5.56c-1.22.17-2.13.61-2.13,1.66s.81,1.52,1.95,1.52A2.47,2.47,0,0,0,504.12,543.82Z"/><path d="M509.57,536.41h2.64v1.92h.12a2.88,2.88,0,0,1,2.85-2.09,6,6,0,0,1,1,.08v2.5a5.39,5.39,0,0,0-1.26-.16,2.48,2.48,0,0,0-2.61,2.51V548h-2.72Z"/><path d="M517,542.23c0-3.53,2.14-6,5.52-6,2.82,0,4.78,1.64,5,4.15h-2.6a2.27,2.27,0,0,0-2.33-2c-1.68,0-2.8,1.4-2.8,3.74s1.1,3.78,2.8,3.78a2.27,2.27,0,0,0,2.33-2h2.6c-.2,2.46-2.05,4.18-5,4.18C519.08,548.19,517,545.73,517,542.23Z"/><path d="M532.44,548h-2.72v-15.4h2.66v5.81h.13a3.4,3.4,0,0,1,3.44-2.11c2.4,0,4,1.55,4,4.35V548h-2.72V541a2.17,2.17,0,0,0-2.27-2.47,2.4,2.4,0,0,0-2.5,2.63Z"/></svg>